<svg width="1050" height="600" version="1.1" xmlns="http://www.w3.org/2000/svg" desc="Created with imagetracer.js version 1.2.6" ><path fill="rgb(254,239,155)" stroke="rgb(254,239,155)" stroke-width="1" opacity="1" d="M 612.5 170 L 611.5 172 L 612.5 170 Z " /><path fill="rgb(254,239,155)" stroke="rgb(254,239,155)" stroke-width="1" opacity="1" d="M 622.5 170 L 623.5 172 L 622.5 170 Z " /><path fill="rgb(254,239,155)" stroke="rgb(254,239,155)" stroke-width="1" opacity="1" d="M 593.5 174 L 595 177.5 L 593 176.5 L 593.5 174 Z " /><path fill="rgb(254,239,155)" stroke="rgb(254,239,155)" stroke-width="1" opacity="1" d="M 621.5 177 L 624 178.5 L 622.5 178 Q 620.3 177.3 621 179.5 L 621.5 181 L 620 178.5 L 621.5 177 Z " /><path fill="rgb(254,239,155)" stroke="rgb(254,239,155)" stroke-width="1" opacity="1" d="M 615.5 181 L 620 181.5 L 615.5 182 L 615.5 181 Z " /><path fill="rgb(254,239,155)" stroke="rgb(254,239,155)" stroke-width="1" opacity="1" d="M 588.5 188 L 587.5 190 L 588.5 188 Z " /><path fill="rgb(254,239,155)" stroke="rgb(254,239,155)" stroke-width="1" opacity="1" d="M 607.5 203 L 608 208.5 L 607 208.5 L 607.5 203 Z " /><path fill="rgb(254,239,155)" stroke="rgb(254,239,155)" stroke-width="1" opacity="1" d="M 632 210 Q 635 209 634 212 Q 631 213 632 210 Z " /><path fill="rgb(254,239,155)" stroke="rgb(254,239,155)" stroke-width="1" opacity="1" d="M 603.5 212 L 600.5 216 L 603.5 212 Z " /><path fill="rgb(254,239,155)" stroke="rgb(254,239,155)" stroke-width="1" opacity="1" d="M 605.5 213 L 604.5 215 L 605.5 213 Z " /><path fill="rgb(254,239,155)" stroke="rgb(254,239,155)" stroke-width="1" opacity="1" d="M 595.5 215 L 598 216.5 L 593.5 217 L 593.5 216 L 595.5 215 Z " /><path fill="rgb(254,239,155)" stroke="rgb(254,239,155)" stroke-width="1" opacity="1" d="M 602.5 216 L 601.5 218 L 602.5 216 Z " /><path fill="rgb(254,239,155)" stroke="rgb(254,239,155)" stroke-width="1" opacity="1" d="M 586.5 217 L 587.5 219 L 586.5 217 Z " /><path fill="rgb(254,239,155)" stroke="rgb(254,239,155)" stroke-width="1" opacity="1" d="M 640.5 224 L 641.5 226 L 640.5 224 Z " /><path fill="rgb(254,239,155)" stroke="rgb(254,239,155)" stroke-width="1" opacity="1" d="M 623.5 228 L 624 231.5 L 623 231.5 L 623.5 228 Z " /><path fill="rgb(254,239,155)" stroke="rgb(254,239,155)" stroke-width="1" opacity="1" d="M 642.5 228 L 643 231.5 L 642 231.5 L 642.5 228 Z " /><path fill="rgb(254,239,155)" stroke="rgb(254,239,155)" stroke-width="1" opacity="1" d="M 640.5 229 L 641 232.5 L 639 231.5 L 640.5 229 Z " /><path fill="rgb(254,239,155)" stroke="rgb(254,239,155)" stroke-width="1" opacity="1" d="M 638.5 233 L 640 234.5 L 638.5 238 Q 640.1 236.3 637 234.5 L 638.5 233 Z " /><path fill="rgb(254,239,155)" stroke="rgb(254,239,155)" stroke-width="1" opacity="1" d="M 635.5 235 L 636.5 237 L 635.5 235 Z " /><path fill="rgb(254,239,155)" stroke="rgb(254,239,155)" stroke-width="1" opacity="1" d="M 626.5 236 L 627.5 238 L 626.5 236 Z " /><path fill="rgb(254,239,155)" stroke="rgb(254,239,155)" stroke-width="1" opacity="1" d="M 0 455 L 32.5 463 L 55.5 472 L 72.5 476 L 99.5 478 L 100.5 479 L 115.5 479 L 116.5 480 L 144.5 480 L 145.5 479 L 167.5 478 L 219.5 466 L 241.5 465 L 242.5 466 L 319.5 467 L 320.5 468 L 341.5 469 L 364.5 473 L 389.5 483 L 401.5 484 L 402.5 485 L 412.5 485 L 413.5 486 L 452.5 487 L 453.5 488 L 517.5 488 L 518.5 487 L 526.5 487 L 537.5 485 L 557.5 479 L 575.5 465 L 583.5 462 L 616.5 456 L 627.5 456 L 628.5 455 L 660.5 455 L 661.5 456 L 671.5 456 L 672.5 457 L 686.5 458 L 722.5 466 Q 744.8 472.7 763.5 483 L 791.5 491 L 818.5 494 L 819.5 495 L 828.5 495 L 829.5 496 L 859.5 497 L 860.5 498 L 881.5 498 L 882.5 497 L 903.5 496 L 922.5 492 L 949.5 479 L 998.5 465 L 1032.5 458 L 1050 457 L 1050 483.5 L 1046.5 484 L 1045.5 483 L 1025.5 483 L 1024.5 484 L 1017.5 484 Q 1011 487 1001.5 487 L 961.5 497 L 932.5 506 L 915.5 515 L 900.5 520 L 889.5 521 L 888.5 522 L 879.5 522 L 878.5 523 L 858.5 524 L 857.5 523 L 837.5 523 L 836.5 522 L 800.5 520 L 799.5 519 L 793.5 519 L 770.5 515 L 745.5 507 L 736.5 502 L 713.5 493 L 675.5 484 L 663.5 483 L 662.5 482 L 653.5 482 L 652.5 481 L 611.5 481 L 610.5 482 L 594.5 483 L 569.5 488 L 560.5 492 L 545.5 504 L 516.5 512 L 494.5 513 L 493.5 514 L 445.5 514 L 444.5 513 L 418.5 513 L 417.5 512 L 402.5 512 L 401.5 511 L 382.5 510 L 369.5 507 L 351.5 499 L 330.5 495 L 321.5 495 L 310.5 493 L 297.5 493 L 296.5 492 L 233.5 492 L 232.5 491 L 217.5 491 L 216.5 492 L 198.5 493 L 152.5 504 L 119.5 506 L 118.5 505 L 92.5 505 L 91.5 504 L 79.5 504 L 78.5 503 L 60.5 502 L 46.5 499 L 20.5 489 L 0 484 L 0 455 Z " /><path fill="rgb(255,254,254)" stroke="rgb(255,254,254)" stroke-width="1" opacity="1" d="M 690.5 78 L 681.5 88 L 690.5 78 Z " /><path fill="rgb(255,254,254)" stroke="rgb(255,254,254)" stroke-width="1" opacity="1" d="M 690.5 85 L 684.5 92 L 690.5 85 Z " /><path fill="rgb(255,254,254)" stroke="rgb(255,254,254)" stroke-width="1" opacity="1" d="M 673.5 101 L 665.5 110 L 673.5 101 Z " /><path fill="rgb(255,254,254)" stroke="rgb(255,254,254)" stroke-width="1" opacity="1" d="M 663.5 104 L 660 108.5 L 659 110.5 L 661 111.5 L 659.5 112 Q 656.8 110.8 659 109.5 L 663.5 104 Z " /><path fill="rgb(255,254,254)" stroke="rgb(255,254,254)" stroke-width="1" opacity="1" d="M 652.5 107 L 651.5 109 L 652.5 107 Z " /><path fill="rgb(255,254,254)" stroke="rgb(255,254,254)" stroke-width="1" opacity="1" d="M 661.5 115 L 669 128.5 L 667 127.5 L 661.5 115 Z " /><path fill="rgb(255,254,254)" stroke="rgb(255,254,254)" stroke-width="1" opacity="1" d="M 648.5 119 L 647.5 121 L 648.5 119 Z " /><path fill="rgb(255,254,254)" stroke="rgb(255,254,254)" stroke-width="1" opacity="1" d="M 644.5 122 L 643.5 124 L 644.5 122 Z " /><path fill="rgb(255,254,254)" stroke="rgb(255,254,254)" stroke-width="1" opacity="1" d="M 639.5 129 L 638.5 131 L 639.5 129 Z " /><path fill="rgb(255,254,254)" stroke="rgb(255,254,254)" stroke-width="1" opacity="1" d="M 636.5 131 L 635.5 133 L 636.5 131 Z " /><path fill="rgb(255,254,254)" stroke="rgb(255,254,254)" stroke-width="1" opacity="1" d="M 661.5 136 L 662.5 138 L 661.5 136 Z " /><path fill="rgb(255,254,254)" stroke="rgb(255,254,254)" stroke-width="1" opacity="1" d="M 626.5 138 L 625.5 140 L 626.5 138 Z " /><path fill="rgb(255,254,254)" stroke="rgb(255,254,254)" stroke-width="1" opacity="1" d="M 621.5 139 L 620.5 141 L 621.5 139 Z " /><path fill="rgb(255,254,254)" stroke="rgb(255,254,254)" stroke-width="1" opacity="1" d="M 623.5 140 L 622.5 142 L 623.5 140 Z " /><path fill="rgb(255,254,254)" stroke="rgb(255,254,254)" stroke-width="1" opacity="1" d="M 670.5 140 L 669.5 142 L 670.5 140 Z " /><path fill="rgb(255,254,254)" stroke="rgb(255,254,254)" stroke-width="1" opacity="1" d="M 617.5 142 L 616.5 144 L 617.5 142 Z " /><path fill="rgb(255,254,254)" stroke="rgb(255,254,254)" stroke-width="1" opacity="1" d="M 610.5 173 L 611 176.5 L 610 176.5 L 610.5 173 Z " /><path fill="rgb(255,254,254)" stroke="rgb(255,254,254)" stroke-width="1" opacity="1" d="M 624.5 173 L 625 176.5 L 624 176.5 L 624.5 173 Z " /><path fill="rgb(255,254,254)" stroke="rgb(255,254,254)" stroke-width="1" opacity="1" d="M 633.5 208 L 634 210 L 632 209.5 L 633.5 208 Z " /><path fill="rgb(255,254,254)" stroke="rgb(255,254,254)" stroke-width="1" opacity="1" d="M 602.5 210 L 603.5 212 L 602.5 210 Z " /><path fill="rgb(255,254,254)" stroke="rgb(255,254,254)" stroke-width="1" opacity="1" d="M 582.5 214 L 584.5 217 L 582.5 214 Z " /><path fill="rgb(255,254,254)" stroke="rgb(255,254,254)" stroke-width="1" opacity="1" d="M 598.5 214 L 599.5 216 L 598.5 214 Z " /><path fill="rgb(255,254,254)" stroke="rgb(255,254,254)" stroke-width="1" opacity="1" d="M 257.5 215 L 262 215.5 L 257.5 216 L 257.5 215 Z " /><path fill="rgb(255,254,254)" stroke="rgb(255,254,254)" stroke-width="1" opacity="1" d="M 264.5 222 L 265 224.5 L 264 224.5 L 264.5 222 Z " /><path fill="rgb(255,254,254)" stroke="rgb(255,254,254)" stroke-width="1" opacity="1" d="M 239.5 223 L 238.5 225 L 239.5 223 Z " /><path fill="rgb(255,254,254)" stroke="rgb(255,254,254)" stroke-width="1" opacity="1" d="M 235.5 226 L 234.5 228 L 235.5 226 Z " /><path fill="rgb(255,254,254)" stroke="rgb(255,254,254)" stroke-width="1" opacity="1" d="M 418.5 226 L 421 227.5 L 419.5 228 L 418.5 226 Z " /><path fill="rgb(255,254,254)" stroke="rgb(255,254,254)" stroke-width="1" opacity="1" d="M 231.5 229 L 228.5 233 L 231.5 229 Z " /><path fill="rgb(255,254,254)" stroke="rgb(255,254,254)" stroke-width="1" opacity="1" d="M 236.5 234 L 233.5 238 L 236.5 234 Z " /><path fill="rgb(255,254,254)" stroke="rgb(255,254,254)" stroke-width="1" opacity="1" d="M 636.5 235 L 635.5 237 L 636.5 235 Z " /><path fill="rgb(255,254,254)" stroke="rgb(255,254,254)" stroke-width="1" opacity="1" d="M 215.5 245 L 210.5 251 L 215.5 245 Z " /><path fill="rgb(255,254,254)" stroke="rgb(255,254,254)" stroke-width="1" opacity="1" d="M 225.5 245 L 221.5 250 L 225.5 245 Z " /><path fill="rgb(255,254,254)" stroke="rgb(255,254,254)" stroke-width="1" opacity="1" d="M 217.5 254 L 215.5 257 L 217.5 254 Z " /><path fill="rgb(255,254,254)" stroke="rgb(255,254,254)" stroke-width="1" opacity="1" d="M 206.5 255 L 204.5 258 L 206.5 255 Z " /><path fill="rgb(255,254,254)" stroke="rgb(255,254,254)" stroke-width="1" opacity="1" d="M 485.5 258 L 488 258.5 L 485.5 259 L 485.5 258 Z " /><path fill="rgb(255,254,254)" stroke="rgb(255,254,254)" stroke-width="1" opacity="1" d="M 212.5 260 L 211.5 262 L 212.5 260 Z " /><path fill="rgb(255,254,254)" stroke="rgb(255,254,254)" stroke-width="1" opacity="1" d="M 387.5 260 L 388.5 262 L 387.5 260 Z " /><path fill="rgb(255,254,254)" stroke="rgb(255,254,254)" stroke-width="1" opacity="1" d="M 757.5 260 L 758.5 262 L 757.5 260 Z " /><path fill="rgb(255,254,254)" stroke="rgb(255,254,254)" stroke-width="1" opacity="1" d="M 201.5 261 L 200.5 263 L 201.5 261 Z " /><path fill="rgb(255,254,254)" stroke="rgb(255,254,254)" stroke-width="1" opacity="1" d="M 882.5 263 L 885 263.5 L 882.5 264 L 882.5 263 Z " /><path fill="rgb(255,254,254)" stroke="rgb(255,254,254)" stroke-width="1" opacity="1" d="M 890.5 263 L 904 263.5 L 890.5 264 L 890.5 263 Z " /><path fill="rgb(255,254,254)" stroke="rgb(255,254,254)" stroke-width="1" opacity="1" d="M 520.5 264 L 519.5 266 L 520.5 264 Z " /><path fill="rgb(255,254,254)" stroke="rgb(255,254,254)" stroke-width="1" opacity="1" d="M 208.5 265 L 207.5 267 L 208.5 265 Z " /><path fill="rgb(255,254,254)" stroke="rgb(255,254,254)" stroke-width="1" opacity="1" d="M 197.5 266 L 196.5 268 L 197.5 266 Z " /><path fill="rgb(255,254,254)" stroke="rgb(255,254,254)" stroke-width="1" opacity="1" d="M 460.5 266 L 458.5 269 L 460.5 266 Z " /><path fill="rgb(255,254,254)" stroke="rgb(255,254,254)" stroke-width="1" opacity="1" d="M 517.5 267 L 516.5 269 L 517.5 267 Z " /><path fill="rgb(255,254,254)" stroke="rgb(255,254,254)" stroke-width="1" opacity="1" d="M 901.5 269 L 899.5 272 L 901.5 269 Z " /><path fill="rgb(255,254,254)" stroke="rgb(255,254,254)" stroke-width="1" opacity="1" d="M 204.5 270 L 203.5 272 L 204.5 270 Z " /><path fill="rgb(255,254,254)" stroke="rgb(255,254,254)" stroke-width="1" opacity="1" d="M 366.5 270 L 369 270.5 L 366.5 271 L 366.5 270 Z " /><path fill="rgb(255,254,254)" stroke="rgb(255,254,254)" stroke-width="1" opacity="1" d="M 736.5 270 L 739 270.5 L 736.5 271 L 736.5 270 Z " /><path fill="rgb(255,254,254)" stroke="rgb(255,254,254)" stroke-width="1" opacity="1" d="M 814.5 270 L 807.5 278 L 814.5 270 Z " /><path fill="rgb(255,254,254)" stroke="rgb(255,254,254)" stroke-width="1" opacity="1" d="M 775.5 271 L 774.5 273 L 775.5 271 Z " /><path fill="rgb(255,254,254)" stroke="rgb(255,254,254)" stroke-width="1" opacity="1" d="M 192.5 273 L 191.5 275 L 192.5 273 Z " /><path fill="rgb(255,254,254)" stroke="rgb(255,254,254)" stroke-width="1" opacity="1" d="M 852.5 273 L 851.5 275 L 852.5 273 Z " /><path fill="rgb(255,254,254)" stroke="rgb(255,254,254)" stroke-width="1" opacity="1" d="M 358.5 274 L 354.5 279 L 358.5 274 Z " /><path fill="rgb(255,254,254)" stroke="rgb(255,254,254)" stroke-width="1" opacity="1" d="M 728.5 274 L 724.5 279 L 728.5 274 Z " /><path fill="rgb(255,254,254)" stroke="rgb(255,254,254)" stroke-width="1" opacity="1" d="M 774.5 274 L 775.5 276 L 774.5 274 Z " /><path fill="rgb(255,254,254)" stroke="rgb(255,254,254)" stroke-width="1" opacity="1" d="M 345.5 275 L 337.5 284 L 345.5 275 Z " /><path fill="rgb(255,254,254)" stroke="rgb(255,254,254)" stroke-width="1" opacity="1" d="M 715.5 275 L 707.5 284 L 715.5 275 Z " /><path fill="rgb(255,254,254)" stroke="rgb(255,254,254)" stroke-width="1" opacity="1" d="M 829.5 278 L 830.5 280 L 829.5 278 Z " /><path fill="rgb(255,254,254)" stroke="rgb(255,254,254)" stroke-width="1" opacity="1" d="M 835.5 278 L 833.5 281 L 835.5 278 Z " /><path fill="rgb(255,254,254)" stroke="rgb(255,254,254)" stroke-width="1" opacity="1" d="M 815.5 279 L 814.5 281 L 815.5 279 Z " /><path fill="rgb(255,254,254)" stroke="rgb(255,254,254)" stroke-width="1" opacity="1" d="M 845.5 280 L 844.5 282 L 845.5 280 Z " /><path fill="rgb(255,254,254)" stroke="rgb(255,254,254)" stroke-width="1" opacity="1" d="M 804.5 281 L 803.5 283 L 804.5 281 Z " /><path fill="rgb(255,254,254)" stroke="rgb(255,254,254)" stroke-width="1" opacity="1" d="M 382.5 282 L 380.5 285 L 382.5 282 Z " /><path fill="rgb(255,254,254)" stroke="rgb(255,254,254)" stroke-width="1" opacity="1" d="M 752.5 282 L 750.5 285 L 752.5 282 Z " /><path fill="rgb(255,254,254)" stroke="rgb(255,254,254)" stroke-width="1" opacity="1" d="M 368.5 285 L 366.5 288 L 368.5 285 Z " /><path fill="rgb(255,254,254)" stroke="rgb(255,254,254)" stroke-width="1" opacity="1" d="M 738.5 285 L 736.5 288 L 738.5 285 Z " /><path fill="rgb(255,254,254)" stroke="rgb(255,254,254)" stroke-width="1" opacity="1" d="M 334.5 287 L 333.5 289 L 334.5 287 Z " /><path fill="rgb(255,254,254)" stroke="rgb(255,254,254)" stroke-width="1" opacity="1" d="M 704.5 287 L 703.5 289 L 704.5 287 Z " /><path fill="rgb(255,254,254)" stroke="rgb(255,254,254)" stroke-width="1" opacity="1" d="M 806.5 288 L 805.5 290 L 806.5 288 Z " /><path fill="rgb(255,254,254)" stroke="rgb(255,254,254)" stroke-width="1" opacity="1" d="M 229.5 289 L 232 289.5 L 229.5 290 L 229.5 289 Z " /><path fill="rgb(255,254,254)" stroke="rgb(255,254,254)" stroke-width="1" opacity="1" d="M 798.5 289 L 797.5 291 L 798.5 289 Z " /><path fill="rgb(255,254,254)" stroke="rgb(255,254,254)" stroke-width="1" opacity="1" d="M 363.5 290 L 361.5 293 L 363.5 290 Z " /><path fill="rgb(255,254,254)" stroke="rgb(255,254,254)" stroke-width="1" opacity="1" d="M 374.5 290 L 372.5 293 L 374.5 290 Z " /><path fill="rgb(255,254,254)" stroke="rgb(255,254,254)" stroke-width="1" opacity="1" d="M 733.5 290 L 731.5 293 L 733.5 290 Z " /><path fill="rgb(255,254,254)" stroke="rgb(255,254,254)" stroke-width="1" opacity="1" d="M 744.5 290 L 742.5 293 L 744.5 290 Z " /><path fill="rgb(255,254,254)" stroke="rgb(255,254,254)" stroke-width="1" opacity="1" d="M 170.5 291 L 169.5 293 L 170.5 291 Z " /><path fill="rgb(255,254,254)" stroke="rgb(255,254,254)" stroke-width="1" opacity="1" d="M 856.5 291 L 858.5 294 L 856.5 291 Z " /><path fill="rgb(255,254,254)" stroke="rgb(255,254,254)" stroke-width="1" opacity="1" d="M 795.5 293 L 794.5 295 L 795.5 293 Z " /><path fill="rgb(255,254,254)" stroke="rgb(255,254,254)" stroke-width="1" opacity="1" d="M 802.5 293 L 801.5 295 L 802.5 293 Z " /><path fill="rgb(255,254,254)" stroke="rgb(255,254,254)" stroke-width="1" opacity="1" d="M 368.5 295 L 367.5 297 L 368.5 295 Z " /><path fill="rgb(255,254,254)" stroke="rgb(255,254,254)" stroke-width="1" opacity="1" d="M 738.5 295 L 737.5 297 L 738.5 295 Z " /><path fill="rgb(255,254,254)" stroke="rgb(255,254,254)" stroke-width="1" opacity="1" d="M 800.5 296 L 799.5 298 L 800.5 296 Z " /><path fill="rgb(255,254,254)" stroke="rgb(255,254,254)" stroke-width="1" opacity="1" d="M 364.5 298 L 363.5 300 L 364.5 298 Z " /><path fill="rgb(255,254,254)" stroke="rgb(255,254,254)" stroke-width="1" opacity="1" d="M 734.5 298 L 733.5 300 L 734.5 298 Z " /><path fill="rgb(255,254,254)" stroke="rgb(255,254,254)" stroke-width="1" opacity="1" d="M 798.5 299 L 797.5 301 L 798.5 299 Z " /><path fill="rgb(255,254,254)" stroke="rgb(255,254,254)" stroke-width="1" opacity="1" d="M 842.5 301 L 845.5 305 L 842.5 301 Z " /><path fill="rgb(255,254,254)" stroke="rgb(255,254,254)" stroke-width="1" opacity="1" d="M 848.5 306 L 849.5 308 L 848.5 306 Z " /><path fill="rgb(255,254,254)" stroke="rgb(255,254,254)" stroke-width="1" opacity="1" d="M 851.5 308 L 852.5 310 L 851.5 308 Z " /><path fill="rgb(255,254,254)" stroke="rgb(255,254,254)" stroke-width="1" opacity="1" d="M 883.5 309 L 884.5 311 L 883.5 309 Z " /><path fill="rgb(255,254,254)" stroke="rgb(255,254,254)" stroke-width="1" opacity="1" d="M 495.5 310 L 494.5 312 L 495.5 310 Z " /><path fill="rgb(255,254,254)" stroke="rgb(255,254,254)" stroke-width="1" opacity="1" d="M 502.5 312 L 503 314 L 501 313.5 L 502.5 312 Z " /><path fill="rgb(255,254,254)" stroke="rgb(255,254,254)" stroke-width="1" opacity="1" d="M 491.5 315 L 488.5 319 L 491.5 315 Z " /><path fill="rgb(255,254,254)" stroke="rgb(255,254,254)" stroke-width="1" opacity="1" d="M 497.5 318 L 494.5 322 L 497.5 318 Z " /><path fill="rgb(255,254,254)" stroke="rgb(255,254,254)" stroke-width="1" opacity="1" d="M 868.5 318 L 869.5 320 L 868.5 318 Z " /><path fill="rgb(255,254,254)" stroke="rgb(255,254,254)" stroke-width="1" opacity="1" d="M 488.5 328 L 469.5 348 L 488.5 328 Z " /><path fill="rgb(255,254,254)" stroke="rgb(255,254,254)" stroke-width="1" opacity="1" d="M 475.5 331 L 474.5 333 L 475.5 331 Z " /><path fill="rgb(255,254,254)" stroke="rgb(255,254,254)" stroke-width="1" opacity="1" d="M 884.5 335 L 883.5 337 L 884.5 335 Z " /><path fill="rgb(255,254,254)" stroke="rgb(255,254,254)" stroke-width="1" opacity="1" d="M 825.5 336 L 823.5 339 L 825.5 336 Z " /><path fill="rgb(255,254,254)" stroke="rgb(255,254,254)" stroke-width="1" opacity="1" d="M 839.5 339 L 840.5 341 L 839.5 339 Z " /><path fill="rgb(255,254,254)" stroke="rgb(255,254,254)" stroke-width="1" opacity="1" d="M 870.5 339 L 869.5 341 L 870.5 339 Z " /><path fill="rgb(255,254,254)" stroke="rgb(255,254,254)" stroke-width="1" opacity="1" d="M 881.5 339 L 875.5 346 L 881.5 339 Z " /><path fill="rgb(255,254,254)" stroke="rgb(255,254,254)" stroke-width="1" opacity="1" d="M 296.5 340 L 297 343.5 L 296 343.5 L 296.5 340 Z " /><path fill="rgb(255,254,254)" stroke="rgb(255,254,254)" stroke-width="1" opacity="1" d="M 236.5 344 L 235.5 346 L 236.5 344 Z " /><path fill="rgb(255,254,254)" stroke="rgb(255,254,254)" stroke-width="1" opacity="1" d="M 326.5 344 L 327.5 346 L 326.5 344 Z " /><path fill="rgb(255,254,254)" stroke="rgb(255,254,254)" stroke-width="1" opacity="1" d="M 377.5 344 L 376.5 346 L 377.5 344 Z " /><path fill="rgb(255,254,254)" stroke="rgb(255,254,254)" stroke-width="1" opacity="1" d="M 696.5 344 L 697.5 346 L 696.5 344 Z " /><path fill="rgb(255,254,254)" stroke="rgb(255,254,254)" stroke-width="1" opacity="1" d="M 747.5 344 L 746.5 346 L 747.5 344 Z " /><path fill="rgb(255,254,254)" stroke="rgb(255,254,254)" stroke-width="1" opacity="1" d="M 295.5 345 L 293.5 348 L 295.5 345 Z " /><path fill="rgb(255,254,254)" stroke="rgb(255,254,254)" stroke-width="1" opacity="1" d="M 156.5 346 L 157 349.5 L 156 349.5 L 156.5 346 Z " /><path fill="rgb(255,254,254)" stroke="rgb(255,254,254)" stroke-width="1" opacity="1" d="M 414.5 347 L 413.5 349 L 414.5 347 Z " /><path fill="rgb(255,254,254)" stroke="rgb(255,254,254)" stroke-width="1" opacity="1" d="M 171.5 348 L 168.5 352 L 171.5 348 Z " /><path fill="rgb(255,254,254)" stroke="rgb(255,254,254)" stroke-width="1" opacity="1" d="M 231.5 349 L 230.5 351 L 231.5 349 Z " /><path fill="rgb(255,254,254)" stroke="rgb(255,254,254)" stroke-width="1" opacity="1" d="M 410.5 350 L 409.5 352 L 410.5 350 Z " /><path fill="rgb(255,254,254)" stroke="rgb(255,254,254)" stroke-width="1" opacity="1" d="M 220.5 351 L 221.5 353 L 220.5 351 Z " /><path fill="rgb(255,254,254)" stroke="rgb(255,254,254)" stroke-width="1" opacity="1" d="M 762.5 351 L 763 353.5 L 762 353.5 L 762.5 351 Z " /><path fill="rgb(255,254,254)" stroke="rgb(255,254,254)" stroke-width="1" opacity="1" d="M 157.5 352 L 158.5 354 L 157.5 352 Z " /><path fill="rgb(255,254,254)" stroke="rgb(255,254,254)" stroke-width="1" opacity="1" d="M 160.5 354 L 163 354.5 L 160.5 355 L 160.5 354 Z " /><path fill="rgb(255,254,254)" stroke="rgb(255,254,254)" stroke-width="1" opacity="1" d="M 479.5 403 L 478.5 405 L 479.5 403 Z " /><path fill="rgb(255,254,254)" stroke="rgb(255,254,254)" stroke-width="1" opacity="1" d="M 463.5 405 L 462.5 407 L 463.5 405 Z " /><path fill="rgb(255,254,254)" stroke="rgb(255,254,254)" stroke-width="1" opacity="1" d="M 476.5 407 L 474.5 410 L 476.5 407 Z " /><path fill="rgb(255,254,254)" stroke="rgb(255,254,254)" stroke-width="1" opacity="1" d="M 453.5 415 L 452.5 417 L 453.5 415 Z " /><path fill="rgb(255,254,254)" stroke="rgb(255,254,254)" stroke-width="1" opacity="1" d="M 467.5 416 L 465.5 419 L 467.5 416 Z " /><path fill="rgb(255,254,254)" stroke="rgb(255,254,254)" stroke-width="1" opacity="1" d="M 449.5 418 L 448.5 420 L 449.5 418 Z " /><path fill="rgb(255,254,254)" stroke="rgb(255,254,254)" stroke-width="1" opacity="1" d="M 420.5 433 L 429 433.5 L 420.5 434 L 420.5 433 Z " /><path fill="rgb(255,254,254)" stroke="rgb(255,254,254)" stroke-width="1" opacity="1" d="M 638.5 454 L 651 454.5 L 638.5 455 L 638.5 454 Z " /><path fill="rgb(255,254,254)" stroke="rgb(255,254,254)" stroke-width="1" opacity="1" d="M 622.5 455 L 628 455.5 L 622.5 456 L 622.5 455 Z " /><path fill="rgb(255,254,254)" stroke="rgb(255,254,254)" stroke-width="1" opacity="1" d="M 661.5 455 L 666 455.5 L 661.5 456 L 661.5 455 Z " /><path fill="rgb(255,254,254)" stroke="rgb(255,254,254)" stroke-width="1" opacity="1" d="M 613.5 456 L 616 456.5 L 613.5 457 L 613.5 456 Z " /><path fill="rgb(255,254,254)" stroke="rgb(255,254,254)" stroke-width="1" opacity="1" d="M 672.5 456 L 676 456.5 L 672.5 457 L 672.5 456 Z " /><path fill="rgb(255,254,254)" stroke="rgb(255,254,254)" stroke-width="1" opacity="1" d="M 606.5 457 L 610 457.5 L 606.5 458 L 606.5 457 Z " /><path fill="rgb(255,254,254)" stroke="rgb(255,254,254)" stroke-width="1" opacity="1" d="M 680.5 457 L 683 457.5 L 680.5 458 L 680.5 457 Z " /><path fill="rgb(255,254,254)" stroke="rgb(255,254,254)" stroke-width="1" opacity="1" d="M 1037.5 457 L 1040 457.5 L 1037.5 458 L 1037.5 457 Z " /><path fill="rgb(255,254,254)" stroke="rgb(255,254,254)" stroke-width="1" opacity="1" d="M 1029.5 458 L 1032 458.5 L 1029.5 459 L 1029.5 458 Z " /><path fill="rgb(255,254,254)" stroke="rgb(255,254,254)" stroke-width="1" opacity="1" d="M 594.5 459 L 597 459.5 L 594.5 460 L 594.5 459 Z " /><path fill="rgb(255,254,254)" stroke="rgb(255,254,254)" stroke-width="1" opacity="1" d="M 1024.5 459 L 1027 459.5 L 1024.5 460 L 1024.5 459 Z " /><path fill="rgb(255,254,254)" stroke="rgb(255,254,254)" stroke-width="1" opacity="1" d="M 1018.5 460 L 1021 460.5 L 1018.5 461 L 1018.5 460 Z " /><path fill="rgb(255,254,254)" stroke="rgb(255,254,254)" stroke-width="1" opacity="1" d="M 701.5 461 L 704 461.5 L 701.5 462 L 701.5 461 Z " /><path fill="rgb(255,254,254)" stroke="rgb(255,254,254)" stroke-width="1" opacity="1" d="M 223.5 465 L 233 465.5 L 223.5 466 L 223.5 465 Z " /><path fill="rgb(255,254,254)" stroke="rgb(255,254,254)" stroke-width="1" opacity="1" d="M 242.5 465 L 258 465.5 L 242.5 466 L 242.5 465 Z " /><path fill="rgb(255,254,254)" stroke="rgb(255,254,254)" stroke-width="1" opacity="1" d="M 574.5 465 L 573.5 467 L 574.5 465 Z " /><path fill="rgb(255,254,254)" stroke="rgb(255,254,254)" stroke-width="1" opacity="1" d="M 215.5 466 L 219 466.5 L 215.5 467 L 215.5 466 Z " /><path fill="rgb(255,254,254)" stroke="rgb(255,254,254)" stroke-width="1" opacity="1" d="M 294.5 466 L 310 466.5 L 294.5 467 L 294.5 466 Z " /><path fill="rgb(255,254,254)" stroke="rgb(255,254,254)" stroke-width="1" opacity="1" d="M 210.5 467 L 213 467.5 L 210.5 468 L 210.5 467 Z " /><path fill="rgb(255,254,254)" stroke="rgb(255,254,254)" stroke-width="1" opacity="1" d="M 320.5 467 L 326 467.5 L 320.5 468 L 320.5 467 Z " /><path fill="rgb(255,254,254)" stroke="rgb(255,254,254)" stroke-width="1" opacity="1" d="M 571.5 467 L 567.5 472 L 571.5 467 Z " /><path fill="rgb(255,254,254)" stroke="rgb(255,254,254)" stroke-width="1" opacity="1" d="M 332.5 468 L 337 468.5 L 332.5 469 L 332.5 468 Z " /><path fill="rgb(255,254,254)" stroke="rgb(255,254,254)" stroke-width="1" opacity="1" d="M 342.5 469 L 346 469.5 L 342.5 470 L 342.5 469 Z " /><path fill="rgb(255,254,254)" stroke="rgb(255,254,254)" stroke-width="1" opacity="1" d="M 349.5 470 L 352 470.5 L 349.5 471 L 349.5 470 Z " /><path fill="rgb(255,254,254)" stroke="rgb(255,254,254)" stroke-width="1" opacity="1" d="M 355.5 471 L 358 471.5 L 355.5 472 L 355.5 471 Z " /><path fill="rgb(255,254,254)" stroke="rgb(255,254,254)" stroke-width="1" opacity="1" d="M 564.5 473 L 562.5 476 L 564.5 473 Z " /><path fill="rgb(255,254,254)" stroke="rgb(255,254,254)" stroke-width="1" opacity="1" d="M 72.5 475 L 75 475.5 L 72.5 476 L 72.5 475 Z " /><path fill="rgb(255,254,254)" stroke="rgb(255,254,254)" stroke-width="1" opacity="1" d="M 79.5 476 L 83 476.5 L 79.5 477 L 79.5 476 Z " /><path fill="rgb(255,254,254)" stroke="rgb(255,254,254)" stroke-width="1" opacity="1" d="M 560.5 476 L 559.5 478 L 560.5 476 Z " /><path fill="rgb(255,254,254)" stroke="rgb(255,254,254)" stroke-width="1" opacity="1" d="M 89.5 477 L 93 477.5 L 89.5 478 L 89.5 477 Z " /><path fill="rgb(255,254,254)" stroke="rgb(255,254,254)" stroke-width="1" opacity="1" d="M 165.5 477 L 168 477.5 L 165.5 478 L 165.5 477 Z " /><path fill="rgb(255,254,254)" stroke="rgb(255,254,254)" stroke-width="1" opacity="1" d="M 100.5 478 L 105 478.5 L 100.5 479 L 100.5 478 Z " /><path fill="rgb(255,254,254)" stroke="rgb(255,254,254)" stroke-width="1" opacity="1" d="M 156.5 478 L 160 478.5 L 156.5 479 L 156.5 478 Z " /><path fill="rgb(255,254,254)" stroke="rgb(255,254,254)" stroke-width="1" opacity="1" d="M 116.5 479 L 145 479.5 L 116.5 480 L 116.5 479 Z " /><path fill="rgb(255,254,254)" stroke="rgb(255,254,254)" stroke-width="1" opacity="1" d="M 394.5 483 L 397 483.5 L 394.5 484 L 394.5 483 Z " /><path fill="rgb(255,254,254)" stroke="rgb(255,254,254)" stroke-width="1" opacity="1" d="M 402.5 484 L 406 484.5 L 402.5 485 L 402.5 484 Z " /><path fill="rgb(255,254,254)" stroke="rgb(255,254,254)" stroke-width="1" opacity="1" d="M 413.5 485 L 418 485.5 L 413.5 486 L 413.5 485 Z " /><path fill="rgb(255,254,254)" stroke="rgb(255,254,254)" stroke-width="1" opacity="1" d="M 934.5 485 L 933.5 487 L 934.5 485 Z " /><path fill="rgb(255,254,254)" stroke="rgb(255,254,254)" stroke-width="1" opacity="1" d="M 426.5 486 L 438 486.5 L 426.5 487 L 426.5 486 Z " /><path fill="rgb(255,254,254)" stroke="rgb(255,254,254)" stroke-width="1" opacity="1" d="M 524.5 486 L 527 486.5 L 524.5 487 L 524.5 486 Z " /><path fill="rgb(255,254,254)" stroke="rgb(255,254,254)" stroke-width="1" opacity="1" d="M 453.5 487 L 471 487.5 L 453.5 488 L 453.5 487 Z " /><path fill="rgb(255,254,254)" stroke="rgb(255,254,254)" stroke-width="1" opacity="1" d="M 507.5 487 L 518 487.5 L 507.5 488 L 507.5 487 Z " /><path fill="rgb(255,254,254)" stroke="rgb(255,254,254)" stroke-width="1" opacity="1" d="M 797.5 491 L 800 491.5 L 797.5 492 L 797.5 491 Z " /><path fill="rgb(255,254,254)" stroke="rgb(255,254,254)" stroke-width="1" opacity="1" d="M 804.5 492 L 807 492.5 L 804.5 493 L 804.5 492 Z " /><path fill="rgb(255,254,254)" stroke="rgb(255,254,254)" stroke-width="1" opacity="1" d="M 811.5 493 L 814 493.5 L 811.5 494 L 811.5 493 Z " /><path fill="rgb(255,254,254)" stroke="rgb(255,254,254)" stroke-width="1" opacity="1" d="M 819.5 494 L 823 494.5 L 819.5 495 L 819.5 494 Z " /><path fill="rgb(255,254,254)" stroke="rgb(255,254,254)" stroke-width="1" opacity="1" d="M 829.5 495 L 836 495.5 L 829.5 496 L 829.5 495 Z " /><path fill="rgb(255,254,254)" stroke="rgb(255,254,254)" stroke-width="1" opacity="1" d="M 900.5 495 L 904 495.5 L 900.5 496 L 900.5 495 Z " /><path fill="rgb(255,254,254)" stroke="rgb(255,254,254)" stroke-width="1" opacity="1" d="M 842.5 496 L 850 496.5 L 842.5 497 L 842.5 496 Z " /><path fill="rgb(255,254,254)" stroke="rgb(255,254,254)" stroke-width="1" opacity="1" d="M 890.5 496 L 895 496.5 L 890.5 497 L 890.5 496 Z " /><path fill="rgb(255,254,254)" stroke="rgb(255,254,254)" stroke-width="1" opacity="1" d="M 860.5 497 L 882 497.5 L 860.5 498 L 860.5 497 Z " /><path fill="rgb(255,255,255)" stroke="rgb(255,255,255)" stroke-width="1" opacity="1" d="M 0 0 L 1050 0 L 1050 457 L 1029.5 458 L 984.5 468 L 948.5 479 L 926.5 490 L 912.5 494 L 900.5 495 L 899.5 496 L 890.5 496 L 889.5 497 L 850.5 497 L 849.5 496 L 814.5 494 L 813.5 493 L 783.5 489 L 759.5 481 L 736.5 470 L 703.5 461 L 675.5 456 L 638.5 454 L 637.5 455 L 613.5 456 L 582.5 462 L 574.5 465 L 558.5 478 L 535.5 485 L 524.5 486 L 523.5 487 L 507.5 487 L 506.5 488 L 471.5 488 L 470.5 487 L 438.5 487 L 437.5 486 L 418.5 486 L 417.5 485 L 397.5 484 L 383.5 481 L 366.5 473 L 345.5 469 L 337.5 469 L 336.5 468 L 310.5 467 L 309.5 466 L 223.5 465 L 222.5 466 L 215.5 466 L 205.5 468 L 164.5 478 L 156.5 478 L 155.5 479 L 105.5 479 L 104.5 478 L 93.5 478 L 92.5 477 L 83.5 477 L 82.5 476 L 64.5 474 L 30.5 462 L 0 455 L 0 0 Z M 693 77 L 659 109 L 660 111 L 656 107 Q 652 106 651 109 L 652 117 L 618 142 Q 614 143 615 147 L 634 144 L 661 137 L 667 142 L 670 142 Q 672 141 671 136 L 673 136 L 683 134 L 690 134 L 691 133 L 698 133 L 699 132 L 706 132 L 707 131 L 714 131 L 718 130 L 693 77 Z M 618 159 L 610 174 L 611 179 Q 613 184 621 182 L 625 177 L 625 174 L 618 159 Z M 530 173 L 593 363 L 594 365 L 633 365 L 696 177 L 696 173 L 665 173 L 663 175 L 662 185 L 651 239 L 636 244 L 634 244 L 634 239 L 639 238 L 643 233 L 643 228 L 634 213 L 634 208 L 629 219 L 623 228 L 624 235 L 630 239 L 631 240 L 631 245 L 622 247 Q 608 245 598 239 L 596 239 L 596 220 L 601 219 L 608 210 L 608 203 L 596 182 L 594 173 L 592 181 L 580 202 Q 579 211 582 215 Q 585 220 592 220 L 592 238 L 591 237 L 576 237 L 574 236 L 574 231 L 563 179 Q 564 173 563 173 L 530 173 Z M 320 214 Q 306 217 297 225 L 299 228 L 304 226 L 307 228 L 307 233 L 303 250 L 281 325 L 275 349 L 275 355 L 278 356 Q 288 354 294 348 L 297 344 L 296 340 L 297 328 L 307 287 L 322 237 L 327 216 Q 326 212 320 214 Z M 441 214 Q 428 218 418 225 L 420 228 L 428 226 L 428 235 L 424 251 L 413 286 L 396 351 Q 395 355 399 356 L 402 356 L 414 349 L 418 344 L 417 339 L 418 329 L 428 288 L 448 220 L 448 216 Q 447 212 441 214 Z M 258 215 L 246 219 L 232 229 Q 203 254 183 288 L 171 291 L 167 296 L 168 299 L 175 298 L 176 299 L 162 327 L 156 347 L 157 353 L 161 355 L 169 352 L 173 347 L 173 341 L 177 324 L 189 295 L 209 291 L 232 290 L 220 343 L 220 352 L 222 353 Q 228 354 231 351 L 239 341 L 241 317 L 247 289 L 254 287 L 255 282 L 249 282 L 265 225 L 265 218 Q 263 214 258 215 Z M 486 258 L 471 261 Q 463 263 458 269 L 460 272 L 467 270 L 468 270 L 468 277 L 463 294 L 446 343 Q 445 351 447 355 L 450 356 L 459 355 L 470 348 L 498 318 L 502 315 L 493 343 L 479 378 Q 472 394 462 408 L 448 420 L 440 424 L 425 427 Q 419 429 418 426 L 408 426 L 408 430 L 411 432 L 421 434 Q 450 434 466 419 L 480 404 L 496 375 L 509 340 L 522 294 Q 529 284 533 271 L 533 262 Q 525 261 521 264 Q 515 268 513 275 L 505 298 L 488 320 Q 480 330 469 336 Q 467 338 466 336 L 466 332 L 470 319 L 489 265 L 489 260 L 486 258 Z M 376 259 Q 358 264 346 275 Q 335 284 328 297 L 322 315 L 322 336 L 326 345 Q 331 352 341 354 Q 366 356 378 345 Q 379 340 377 339 L 361 345 L 352 344 L 348 342 Q 341 338 340 329 L 340 315 L 341 312 Q 359 305 373 293 Q 385 285 390 270 L 389 262 Q 386 257 376 259 Z M 746 259 Q 728 264 716 275 Q 705 284 698 297 L 692 315 L 692 336 L 696 345 Q 701 352 711 354 Q 736 356 748 345 Q 749 340 747 339 L 731 345 L 722 344 L 718 342 Q 712 338 710 329 L 710 315 L 711 312 Q 729 305 743 293 Q 755 285 760 270 L 759 262 Q 756 257 746 259 Z M 798 262 Q 783 265 774 273 L 776 276 L 782 275 L 782 284 L 766 335 L 762 354 L 766 356 L 772 354 L 779 345 Q 783 326 791 312 L 807 288 Q 812 281 821 277 L 828 277 L 832 281 L 834 281 L 840 271 L 840 263 L 838 262 Q 822 262 815 270 Q 804 279 797 292 L 795 293 L 803 271 L 803 262 L 798 262 Z M 883 263 L 862 268 L 853 273 Q 845 278 841 288 L 841 300 L 842 302 L 853 310 L 871 320 L 875 327 Q 876 333 873 337 Q 868 344 858 346 Q 846 347 841 342 L 836 331 Q 830 332 826 336 Q 821 338 822 346 Q 827 353 837 355 L 855 355 L 860 354 L 876 346 Q 885 339 889 327 Q 891 315 885 311 L 861 295 L 855 289 Q 854 282 857 280 Q 861 274 870 273 L 881 273 L 882 274 L 896 274 L 900 272 L 904 266 L 904 263 L 883 263 Z " /><path fill="rgb(255,255,255)" stroke="rgb(255,255,255)" stroke-width="1" opacity="1" d="M 691.5 85 L 711 126 L 674.5 131 L 664 110.5 L 691.5 85 Z " /><path fill="rgb(255,255,255)" stroke="rgb(255,255,255)" stroke-width="1" opacity="1" d="M 650.5 122 L 653 123.5 L 658 134.5 L 618.5 145 L 618.5 144 L 650.5 122 Z " /><path fill="rgb(255,255,255)" stroke="rgb(255,255,255)" stroke-width="1" opacity="1" d="M 603.5 209 L 604 210.5 L 600.5 215 L 597.5 216 L 597.5 215 L 603 210.5 L 603.5 209 Z " /><path fill="rgb(255,255,255)" stroke="rgb(255,255,255)" stroke-width="1" opacity="1" d="M 241.5 231 Q 248.7 228.7 246 236.5 L 234 282 L 205.5 284 L 195 286 L 205 269.5 L 232.5 238 L 241.5 231 Z " /><path fill="rgb(255,255,255)" stroke="rgb(255,255,255)" stroke-width="1" opacity="1" d="M 639.5 232 L 640 233.5 L 637 235.5 L 639.5 232 Z " /><path fill="rgb(255,255,255)" stroke="rgb(255,255,255)" stroke-width="1" opacity="1" d="M 581.5 238 L 592.5 239 L 616.5 252 L 631.5 252 L 649 248 L 628 358 L 598.5 358 L 598 354.5 L 575 240.5 L 581.5 238 Z " /><path fill="rgb(255,255,255)" stroke="rgb(255,255,255)" stroke-width="1" opacity="1" d="M 364.5 271 Q 370.5 269.5 372 272.5 Q 371.9 284.9 364.5 290 Q 356.1 298.6 342.5 302 L 343 300.5 Q 347.6 282.6 360.5 273 L 364.5 271 Z " /><path fill="rgb(255,255,255)" stroke="rgb(255,255,255)" stroke-width="1" opacity="1" d="M 734.5 271 Q 740.5 269.5 742 272.5 Q 741.9 284.9 734.5 290 Q 726.1 298.6 712.5 302 L 713 300.5 Q 717.6 282.6 730.5 273 L 734.5 271 Z " /><path fill="rgb(2,2,2)" stroke="rgb(2,2,2)" stroke-width="1" opacity="1" d="M 691.5 78 L 716 126.5 L 716 130 L 672 135 L 660 108.5 L 691.5 78 Z M 692 84 L 664 110 Q 667 123 675 132 L 704 127 L 710 127 L 712 126 L 692 84 Z " /><path fill="rgb(2,2,2)" stroke="rgb(2,2,2)" stroke-width="1" opacity="1" d="M 652 108 Q 657.6 107 659 111.5 L 669 131.5 L 670 140.5 L 667.5 142 L 661.5 135 L 661 137 L 631.5 143 L 631.5 142 L 653.5 137 L 658 134.5 L 651.5 121 L 619.5 143 L 621.5 140 L 653 118 Q 651 114.9 652 108 Z " /><path fill="rgb(2,2,2)" stroke="rgb(2,2,2)" stroke-width="1" opacity="1" d="M 617.5 143 L 618 145.5 L 616.5 147 Q 613 145 617.5 143 Z " /><path fill="rgb(2,2,2)" stroke="rgb(2,2,2)" stroke-width="1" opacity="1" d="M 531 174 L 561.5 174 L 562 176.5 L 574 237 L 583 237.5 L 575 240.5 L 581 270.5 L 581 275.5 L 587 301.5 L 587 306.5 L 592 327.5 L 592 332.5 L 597 357.5 L 598.5 359 L 627.5 359 L 629 357.5 L 650 247.5 L 648.5 248 L 633.5 251 L 619.5 252 Q 606.1 248.4 597 240.5 L 598.5 240 L 615.5 247 L 625.5 247 L 631 246 L 631 239 L 634 239 L 634.5 245 L 652 239 L 664 174 L 694.5 174 L 695 176.5 L 632 365 L 594.5 365 L 594 363.5 L 531 174 Z " /><path fill="rgb(2,2,2)" stroke="rgb(2,2,2)" stroke-width="1" opacity="1" d="M 318.5 215 L 326 215 L 326 219.5 L 306 287.5 L 296 328.5 L 295 338.5 L 296 343.5 L 293.5 347 Q 287.5 353 277.5 355 Q 274.5 353.5 276 347.5 L 292 287.5 L 303 252.5 L 308 227.5 Q 307.5 224.5 303.5 225 L 298 227 Q 296.5 223.3 299.5 224 L 318.5 215 Z " /><path fill="rgb(2,2,2)" stroke="rgb(2,2,2)" stroke-width="1" opacity="1" d="M 440.5 215 L 447 215 L 447 219.5 L 428 284.5 L 419 320.5 Q 419.6 326.6 417 329.5 L 417 344.5 L 413.5 348 L 404.5 354 L 398.5 355 Q 395.8 353.8 397 348.5 L 413 288.5 L 425 249.5 L 429 232.5 L 429 226.5 L 425.5 225 L 419 227 Q 417.5 223.3 420.5 224 Q 429 218 440.5 215 Z " /><path fill="rgb(2,2,2)" stroke="rgb(2,2,2)" stroke-width="1" opacity="1" d="M 255.5 216 Q 262.3 214.3 264 217.5 L 264 225.5 L 252 265.5 L 249 282 L 254 282 L 254 284.5 L 246 289.5 L 240 318.5 L 238 341.5 L 230.5 350 Q 227.3 353 221 352 L 221 341.5 L 233 289 L 219.5 289 L 218.5 290 L 203.5 291 L 192.5 293 L 188 295.5 L 179 315.5 L 174 331.5 L 173 343.5 L 168.5 351 Q 166.6 354.6 160.5 354 L 158 353 Q 156.3 350.6 157 344.5 L 162 328.5 L 177 297 L 169.5 299 Q 167.3 298.3 168 294.5 L 170.5 292 L 183 289 Q 202.8 255.5 231.5 230 L 245.5 220 L 255.5 216 Z M 243 230 L 234 236 L 204 270 L 195 283 L 194 287 L 197 286 L 221 284 L 222 283 L 234 283 L 236 280 Q 236 273 239 269 L 247 232 Q 246 229 243 230 Z " /><path fill="rgb(2,2,2)" stroke="rgb(2,2,2)" stroke-width="1" opacity="1" d="M 593 219 L 595 219.5 L 595 238.5 L 595.5 240 L 593 239 L 593 219 Z " /><path fill="rgb(2,2,2)" stroke="rgb(2,2,2)" stroke-width="1" opacity="1" d="M 482.5 259 Q 487.8 257.8 489 260.5 L 474 303.5 L 474 306.5 L 466 328.5 L 465 335.5 Q 465.8 337.8 469.5 337 L 490 318.5 L 506 297.5 L 515 271.5 L 520.5 265 L 530.5 262 Q 533.8 262.8 533 267.5 Q 529.5 283 521 293.5 Q 509.9 340.9 492 381.5 Q 482.2 403.2 465.5 418 Q 455.6 426.6 441.5 431 L 431.5 433 L 417.5 433 L 412.5 432 L 409 429.5 L 408 427.5 L 430.5 427 L 441.5 424 Q 454.8 418.3 463 407.5 L 472 393.5 L 483 370.5 L 504 311.5 L 497 317.5 L 470.5 346 L 458.5 354 L 449.5 355 Q 445.6 352.9 446 346.5 L 468 279.5 L 469 269 L 464.5 269 L 459 271 L 460.5 267 L 467.5 263 L 482.5 259 Z " /><path fill="rgb(2,2,2)" stroke="rgb(2,2,2)" stroke-width="1" opacity="1" d="M 374.5 260 L 385.5 260 L 389 262.5 Q 390.1 271.1 387 275.5 L 372.5 292 Q 358.1 304.1 340 312.5 Q 337.6 317.6 339 326.5 L 343 338.5 L 347.5 343 Q 353.3 346.7 364.5 345 L 377 340 Q 378 345.6 373.5 347 Q 362.6 354.1 344.5 354 L 334.5 351 L 327 344.5 Q 320.9 336.1 322 320.5 L 325 305.5 L 330 294.5 L 344.5 277 Q 356.9 265.9 374.5 260 Z M 365 270 L 361 272 Q 346 282 342 302 L 342 303 Q 356 300 365 291 Q 372 285 373 273 Q 372 269 365 270 Z " /><path fill="rgb(2,2,2)" stroke="rgb(2,2,2)" stroke-width="1" opacity="1" d="M 744.5 260 L 755.5 260 L 759 262.5 Q 760.1 271.1 757 275.5 L 742.5 292 Q 728.1 304.1 710 312.5 Q 707.6 317.6 709 326.5 L 713 338.5 L 717.5 343 Q 723.3 346.7 734.5 345 L 747 340 Q 748 345.6 743.5 347 Q 732.6 354.1 714.5 354 L 704.5 351 L 697 344.5 Q 690.9 336.1 692 320.5 L 695 305.5 L 700 294.5 L 714.5 277 Q 726.9 265.9 744.5 260 Z M 735 270 L 731 272 Q 716 282 712 302 L 712 303 Q 726 300 735 291 Q 742 285 743 273 Q 742 269 735 270 Z " /><path fill="rgb(2,2,2)" stroke="rgb(2,2,2)" stroke-width="1" opacity="1" d="M 796.5 263 Q 801.8 261.8 803 264.5 L 802 271.5 L 793 296.5 L 796 294.5 Q 803.6 281.1 814.5 271 Q 821.7 262.7 837.5 263 Q 840.5 263.5 840 267.5 Q 838.3 275.3 833.5 280 L 831.5 280 L 826.5 276 L 820.5 276 Q 810.8 280.3 805 288.5 L 794 304.5 Q 783.8 320.8 779 342.5 Q 776.8 349.3 771.5 353 L 764.5 355 Q 762 354 763 349.5 L 781 290.5 L 783 275.5 L 779.5 274 L 775 275 Q 773.5 271.2 776.5 272 Q 784.4 265.4 796.5 263 Z " /><path fill="rgb(2,2,2)" stroke="rgb(2,2,2)" stroke-width="1" opacity="1" d="M 880.5 264 L 902.5 264 L 903 266.5 L 899.5 271 L 890.5 274 L 889.5 273 L 871.5 272 L 863.5 274 L 856 279.5 L 854 287.5 Q 855.4 293.6 860.5 296 L 879.5 307 L 887 314.5 L 889 321.5 Q 886.3 336.3 876.5 344 Q 864.4 355.4 840.5 355 L 828.5 351 L 823 345.5 L 822 342.5 L 824 338 L 834.5 332 L 841.5 343 L 844.5 345 L 853.5 347 L 863.5 345 L 873 337.5 Q 876.3 334.3 876 327.5 L 870.5 319 L 852.5 309 L 843 301.5 L 841 291.5 Q 843.6 279.6 852.5 274 L 863.5 268 L 880.5 264 Z " /><path fill="rgb(176,150,179)" stroke="rgb(176,150,179)" stroke-width="1" opacity="1" d="M 680.5 88 L 664.5 105 L 680.5 88 Z " /><path fill="rgb(176,150,179)" stroke="rgb(176,150,179)" stroke-width="1" opacity="1" d="M 683.5 91 L 674.5 101 L 683.5 91 Z " /><path fill="rgb(176,150,179)" stroke="rgb(176,150,179)" stroke-width="1" opacity="1" d="M 656.5 108 L 657.5 110 L 656.5 108 Z " /><path fill="rgb(176,150,179)" stroke="rgb(176,150,179)" stroke-width="1" opacity="1" d="M 661.5 113 L 660.5 115 L 661.5 113 Z " /><path fill="rgb(176,150,179)" stroke="rgb(176,150,179)" stroke-width="1" opacity="1" d="M 662.5 115 L 661.5 117 L 662.5 115 Z " /><path fill="rgb(176,150,179)" stroke="rgb(176,150,179)" stroke-width="1" opacity="1" d="M 652.5 116 L 654 118.5 L 652 117.5 L 652.5 116 Z " /><path fill="rgb(176,150,179)" stroke="rgb(176,150,179)" stroke-width="1" opacity="1" d="M 663.5 117 L 662.5 119 L 663.5 117 Z " /><path fill="rgb(176,150,179)" stroke="rgb(176,150,179)" stroke-width="1" opacity="1" d="M 650.5 118 L 649.5 120 L 650.5 118 Z " /><path fill="rgb(176,150,179)" stroke="rgb(176,150,179)" stroke-width="1" opacity="1" d="M 664.5 119 L 663.5 121 L 664.5 119 Z " /><path fill="rgb(176,150,179)" stroke="rgb(176,150,179)" stroke-width="1" opacity="1" d="M 646.5 121 L 645.5 123 L 646.5 121 Z " /><path fill="rgb(176,150,179)" stroke="rgb(176,150,179)" stroke-width="1" opacity="1" d="M 650.5 121 L 649.5 123 L 650.5 121 Z " /><path fill="rgb(176,150,179)" stroke="rgb(176,150,179)" stroke-width="1" opacity="1" d="M 665.5 121 L 664.5 123 L 665.5 121 Z " /><path fill="rgb(176,150,179)" stroke="rgb(176,150,179)" stroke-width="1" opacity="1" d="M 655.5 122 L 657 125.5 L 656 125.5 L 655.5 122 Z " /><path fill="rgb(176,150,179)" stroke="rgb(176,150,179)" stroke-width="1" opacity="1" d="M 647.5 123 L 646.5 125 L 647.5 123 Z " /><path fill="rgb(176,150,179)" stroke="rgb(176,150,179)" stroke-width="1" opacity="1" d="M 666.5 123 L 665.5 125 L 666.5 123 Z " /><path fill="rgb(176,150,179)" stroke="rgb(176,150,179)" stroke-width="1" opacity="1" d="M 667.5 125 L 666.5 127 L 667.5 125 Z " /><path fill="rgb(176,150,179)" stroke="rgb(176,150,179)" stroke-width="1" opacity="1" d="M 706.5 126 L 709 126.5 L 706.5 127 L 706.5 126 Z " /><path fill="rgb(176,150,179)" stroke="rgb(176,150,179)" stroke-width="1" opacity="1" d="M 668.5 127 L 667.5 129 L 668.5 127 Z " /><path fill="rgb(176,150,179)" stroke="rgb(176,150,179)" stroke-width="1" opacity="1" d="M 699.5 127 L 702 127.5 L 699.5 128 L 699.5 127 Z " /><path fill="rgb(176,150,179)" stroke="rgb(176,150,179)" stroke-width="1" opacity="1" d="M 692.5 128 L 695 128.5 L 692.5 129 L 692.5 128 Z " /><path fill="rgb(176,150,179)" stroke="rgb(176,150,179)" stroke-width="1" opacity="1" d="M 669.5 129 L 668.5 131 L 669.5 129 Z " /><path fill="rgb(176,150,179)" stroke="rgb(176,150,179)" stroke-width="1" opacity="1" d="M 685.5 129 L 688 129.5 L 685.5 130 L 685.5 129 Z " /><path fill="rgb(176,150,179)" stroke="rgb(176,150,179)" stroke-width="1" opacity="1" d="M 678.5 130 L 681 130.5 L 678.5 131 L 678.5 130 Z " /><path fill="rgb(176,150,179)" stroke="rgb(176,150,179)" stroke-width="1" opacity="1" d="M 709.5 130 L 712 130.5 L 709.5 131 L 709.5 130 Z " /><path fill="rgb(176,150,179)" stroke="rgb(176,150,179)" stroke-width="1" opacity="1" d="M 701.5 131 L 704 131.5 L 701.5 132 L 701.5 131 Z " /><path fill="rgb(176,150,179)" stroke="rgb(176,150,179)" stroke-width="1" opacity="1" d="M 634.5 132 L 633.5 134 L 634.5 132 Z " /><path fill="rgb(176,150,179)" stroke="rgb(176,150,179)" stroke-width="1" opacity="1" d="M 693.5 132 L 696 132.5 L 693.5 133 L 693.5 132 Z " /><path fill="rgb(176,150,179)" stroke="rgb(176,150,179)" stroke-width="1" opacity="1" d="M 630.5 133 Q 633.5 134.5 630.5 136 L 630.5 133 Z " /><path fill="rgb(176,150,179)" stroke="rgb(176,150,179)" stroke-width="1" opacity="1" d="M 685.5 133 L 688 133.5 L 685.5 134 L 685.5 133 Z " /><path fill="rgb(176,150,179)" stroke="rgb(176,150,179)" stroke-width="1" opacity="1" d="M 677.5 134 L 680 134.5 L 677.5 135 L 677.5 134 Z " /><path fill="rgb(176,150,179)" stroke="rgb(176,150,179)" stroke-width="1" opacity="1" d="M 627.5 135 L 627.5 138 Q 624.5 136.5 627.5 135 Z " /><path fill="rgb(176,150,179)" stroke="rgb(176,150,179)" stroke-width="1" opacity="1" d="M 670.5 135 L 671 139.5 L 670 139.5 L 670.5 135 Z " /><path fill="rgb(176,150,179)" stroke="rgb(176,150,179)" stroke-width="1" opacity="1" d="M 623.5 138 L 624.5 140 L 622 139.5 L 623.5 138 Z " /><path fill="rgb(176,150,179)" stroke="rgb(176,150,179)" stroke-width="1" opacity="1" d="M 663.5 138 L 664.5 140 L 663.5 138 Z " /><path fill="rgb(176,150,179)" stroke="rgb(176,150,179)" stroke-width="1" opacity="1" d="M 637.5 140 L 641 141.5 L 639.5 142 L 637.5 140 Z " /><path fill="rgb(176,150,179)" stroke="rgb(176,150,179)" stroke-width="1" opacity="1" d="M 619.5 141 L 622 141.5 L 619 142.5 L 618 144.5 L 620 145.5 L 617.5 147 L 618 143.5 L 619.5 141 Z " /><path fill="rgb(176,150,179)" stroke="rgb(176,150,179)" stroke-width="1" opacity="1" d="M 633.5 141 L 637 142.5 L 635.5 143 L 633.5 141 Z " /><path fill="rgb(176,150,179)" stroke="rgb(176,150,179)" stroke-width="1" opacity="1" d="M 630.5 142 L 631.5 144 L 630.5 142 Z " /><path fill="rgb(176,150,179)" stroke="rgb(176,150,179)" stroke-width="1" opacity="1" d="M 626 143 Q 629 142 628 145 Q 625 146 626 143 Z " /><path fill="rgb(176,150,179)" stroke="rgb(176,150,179)" stroke-width="1" opacity="1" d="M 622 144 Q 625 143 624 146 Q 621 147 622 144 Z " /><path fill="rgb(176,150,179)" stroke="rgb(176,150,179)" stroke-width="1" opacity="1" d="M 531.5 173 L 562 173.5 L 531.5 174 L 530.5 175 L 531.5 173 Z " /><path fill="rgb(176,150,179)" stroke="rgb(176,150,179)" stroke-width="1" opacity="1" d="M 664.5 173 L 695.5 173 L 696 175.5 L 695 175.5 L 694.5 174 L 664.5 174 L 664.5 173 Z " /><path fill="rgb(176,150,179)" stroke="rgb(176,150,179)" stroke-width="1" opacity="1" d="M 565.5 190 L 566 192.5 L 565 192.5 L 565.5 190 Z " /><path fill="rgb(176,150,179)" stroke="rgb(176,150,179)" stroke-width="1" opacity="1" d="M 566.5 195 L 567 197.5 L 566 197.5 L 566.5 195 Z " /><path fill="rgb(176,150,179)" stroke="rgb(176,150,179)" stroke-width="1" opacity="1" d="M 659.5 196 L 660 198.5 L 659 198.5 L 659.5 196 Z " /><path fill="rgb(176,150,179)" stroke="rgb(176,150,179)" stroke-width="1" opacity="1" d="M 658.5 201 L 659 203.5 L 658 203.5 L 658.5 201 Z " /><path fill="rgb(176,150,179)" stroke="rgb(176,150,179)" stroke-width="1" opacity="1" d="M 320.5 214 L 326 214.5 L 320.5 215 L 320.5 214 Z " /><path fill="rgb(176,150,179)" stroke="rgb(176,150,179)" stroke-width="1" opacity="1" d="M 442.5 214 L 445 214.5 L 442.5 215 L 442.5 214 Z " /><path fill="rgb(176,150,179)" stroke="rgb(176,150,179)" stroke-width="1" opacity="1" d="M 446.5 214 Q 448.8 214.8 448 218.5 L 447 218.5 L 446.5 214 Z " /><path fill="rgb(176,150,179)" stroke="rgb(176,150,179)" stroke-width="1" opacity="1" d="M 264.5 218 L 265 221.5 L 264 221.5 L 264.5 218 Z " /><path fill="rgb(176,150,179)" stroke="rgb(176,150,179)" stroke-width="1" opacity="1" d="M 595.5 219 L 596 239 L 598 239.5 L 596 240.5 L 595.5 239 L 594 239.5 L 595 238.5 L 595.5 219 Z " /><path fill="rgb(176,150,179)" stroke="rgb(176,150,179)" stroke-width="1" opacity="1" d="M 592.5 220 L 593 239 L 583 237.5 L 590.5 237 L 592 237.5 L 592.5 220 Z " /><path fill="rgb(176,150,179)" stroke="rgb(176,150,179)" stroke-width="1" opacity="1" d="M 571.5 221 L 572 223.5 L 571 223.5 L 571.5 221 Z " /><path fill="rgb(176,150,179)" stroke="rgb(176,150,179)" stroke-width="1" opacity="1" d="M 241.5 222 L 240.5 224 L 241.5 222 Z " /><path fill="rgb(176,150,179)" stroke="rgb(176,150,179)" stroke-width="1" opacity="1" d="M 297.5 226 L 298.5 228 L 297.5 226 Z " /><path fill="rgb(176,150,179)" stroke="rgb(176,150,179)" stroke-width="1" opacity="1" d="M 572.5 226 L 573 228.5 L 572 228.5 L 572.5 226 Z " /><path fill="rgb(176,150,179)" stroke="rgb(176,150,179)" stroke-width="1" opacity="1" d="M 307.5 227 L 308 230.5 L 307 230.5 L 307.5 227 Z " /><path fill="rgb(176,150,179)" stroke="rgb(176,150,179)" stroke-width="1" opacity="1" d="M 653.5 227 L 654 229.5 L 653 229.5 L 653.5 227 Z " /><path fill="rgb(176,150,179)" stroke="rgb(176,150,179)" stroke-width="1" opacity="1" d="M 233.5 228 L 232.5 230 L 233.5 228 Z " /><path fill="rgb(176,150,179)" stroke="rgb(176,150,179)" stroke-width="1" opacity="1" d="M 428.5 229 L 429 232.5 L 428 232.5 L 428.5 229 Z " /><path fill="rgb(176,150,179)" stroke="rgb(176,150,179)" stroke-width="1" opacity="1" d="M 245.5 230 Q 247.8 230.8 247 234.5 L 246 234.5 L 245.5 230 Z " /><path fill="rgb(176,150,179)" stroke="rgb(176,150,179)" stroke-width="1" opacity="1" d="M 238.5 232 L 237.5 234 L 238.5 232 Z " /><path fill="rgb(176,150,179)" stroke="rgb(176,150,179)" stroke-width="1" opacity="1" d="M 652.5 232 L 653 234.5 L 652 234.5 L 652.5 232 Z " /><path fill="rgb(176,150,179)" stroke="rgb(176,150,179)" stroke-width="1" opacity="1" d="M 227.5 233 L 216.5 245 L 227.5 233 Z " /><path fill="rgb(176,150,179)" stroke="rgb(176,150,179)" stroke-width="1" opacity="1" d="M 306.5 234 L 307 236.5 L 306 236.5 L 306.5 234 Z " /><path fill="rgb(176,150,179)" stroke="rgb(176,150,179)" stroke-width="1" opacity="1" d="M 232.5 237 L 225.5 245 L 232.5 237 Z " /><path fill="rgb(176,150,179)" stroke="rgb(176,150,179)" stroke-width="1" opacity="1" d="M 599.5 240 L 599.5 243 Q 596.5 241.5 599.5 240 Z " /><path fill="rgb(176,150,179)" stroke="rgb(176,150,179)" stroke-width="1" opacity="1" d="M 601.5 243 L 602.5 245 L 601.5 243 Z " /><path fill="rgb(176,150,179)" stroke="rgb(176,150,179)" stroke-width="1" opacity="1" d="M 623.5 246 L 626 246.5 L 623.5 247 L 623.5 246 Z " /><path fill="rgb(176,150,179)" stroke="rgb(176,150,179)" stroke-width="1" opacity="1" d="M 649.5 247 L 650 249.5 L 649 249.5 L 649.5 247 Z " /><path fill="rgb(176,150,179)" stroke="rgb(176,150,179)" stroke-width="1" opacity="1" d="M 640.5 249 L 643 249.5 L 640.5 250 L 640.5 249 Z " /><path fill="rgb(176,150,179)" stroke="rgb(176,150,179)" stroke-width="1" opacity="1" d="M 220.5 250 L 217.5 254 L 220.5 250 Z " /><path fill="rgb(176,150,179)" stroke="rgb(176,150,179)" stroke-width="1" opacity="1" d="M 634.5 250 L 637 250.5 L 634.5 251 L 634.5 250 Z " /><path fill="rgb(176,150,179)" stroke="rgb(176,150,179)" stroke-width="1" opacity="1" d="M 210.5 251 L 207.5 255 L 210.5 251 Z " /><path fill="rgb(176,150,179)" stroke="rgb(176,150,179)" stroke-width="1" opacity="1" d="M 624.5 251 L 631 251.5 L 624.5 252 L 624.5 251 Z " /><path fill="rgb(176,150,179)" stroke="rgb(176,150,179)" stroke-width="1" opacity="1" d="M 577.5 252 L 578 254.5 L 577 254.5 L 577.5 252 Z " /><path fill="rgb(176,150,179)" stroke="rgb(176,150,179)" stroke-width="1" opacity="1" d="M 214.5 257 L 212.5 260 L 214.5 257 Z " /><path fill="rgb(176,150,179)" stroke="rgb(176,150,179)" stroke-width="1" opacity="1" d="M 204.5 258 L 202.5 261 L 204.5 258 Z " /><path fill="rgb(176,150,179)" stroke="rgb(176,150,179)" stroke-width="1" opacity="1" d="M 647.5 258 L 648 260.5 L 647 260.5 L 647.5 258 Z " /><path fill="rgb(176,150,179)" stroke="rgb(176,150,179)" stroke-width="1" opacity="1" d="M 376.5 259 L 379 259.5 L 376.5 260 L 376.5 259 Z " /><path fill="rgb(176,150,179)" stroke="rgb(176,150,179)" stroke-width="1" opacity="1" d="M 381.5 259 L 385 259.5 L 381.5 260 L 381.5 259 Z " /><path fill="rgb(176,150,179)" stroke="rgb(176,150,179)" stroke-width="1" opacity="1" d="M 478.5 259 L 481 259.5 L 478.5 260 L 478.5 259 Z " /><path fill="rgb(176,150,179)" stroke="rgb(176,150,179)" stroke-width="1" opacity="1" d="M 746.5 259 L 749 259.5 L 746.5 260 L 746.5 259 Z " /><path fill="rgb(176,150,179)" stroke="rgb(176,150,179)" stroke-width="1" opacity="1" d="M 751.5 259 L 755 259.5 L 751.5 260 L 751.5 259 Z " /><path fill="rgb(176,150,179)" stroke="rgb(176,150,179)" stroke-width="1" opacity="1" d="M 210.5 262 L 208.5 265 L 210.5 262 Z " /><path fill="rgb(176,150,179)" stroke="rgb(176,150,179)" stroke-width="1" opacity="1" d="M 798.5 262 Q 802.3 261.3 803 263.5 L 801.5 263 Q 797.5 263.8 798.5 262 Z " /><path fill="rgb(176,150,179)" stroke="rgb(176,150,179)" stroke-width="1" opacity="1" d="M 832.5 262 L 837 262.5 L 832.5 263 L 832.5 262 Z " /><path fill="rgb(176,150,179)" stroke="rgb(176,150,179)" stroke-width="1" opacity="1" d="M 389.5 263 L 390 268.5 L 389 268.5 L 389.5 263 Z " /><path fill="rgb(176,150,179)" stroke="rgb(176,150,179)" stroke-width="1" opacity="1" d="M 759.5 263 L 760 268.5 L 759 268.5 L 759.5 263 Z " /><path fill="rgb(176,150,179)" stroke="rgb(176,150,179)" stroke-width="1" opacity="1" d="M 838.5 263 L 839.5 265 L 838.5 263 Z " /><path fill="rgb(176,150,179)" stroke="rgb(176,150,179)" stroke-width="1" opacity="1" d="M 885.5 263 L 890 263.5 L 885.5 264 L 885.5 263 Z " /><path fill="rgb(176,150,179)" stroke="rgb(176,150,179)" stroke-width="1" opacity="1" d="M 199.5 264 L 198.5 266 L 199.5 264 Z " /><path fill="rgb(176,150,179)" stroke="rgb(176,150,179)" stroke-width="1" opacity="1" d="M 877.5 264 L 880 264.5 L 877.5 265 L 877.5 264 Z " /><path fill="rgb(176,150,179)" stroke="rgb(176,150,179)" stroke-width="1" opacity="1" d="M 462.5 265 L 461.5 267 L 462.5 265 Z " /><path fill="rgb(176,150,179)" stroke="rgb(176,150,179)" stroke-width="1" opacity="1" d="M 820.5 266 L 819.5 268 L 820.5 266 Z " /><path fill="rgb(176,150,179)" stroke="rgb(176,150,179)" stroke-width="1" opacity="1" d="M 206.5 267 L 204.5 270 L 206.5 267 Z " /><path fill="rgb(176,150,179)" stroke="rgb(176,150,179)" stroke-width="1" opacity="1" d="M 357.5 267 L 356.5 269 L 357.5 267 Z " /><path fill="rgb(176,150,179)" stroke="rgb(176,150,179)" stroke-width="1" opacity="1" d="M 727.5 267 L 726.5 269 L 727.5 267 Z " /><path fill="rgb(176,150,179)" stroke="rgb(176,150,179)" stroke-width="1" opacity="1" d="M 196.5 268 L 195.5 270 L 196.5 268 Z " /><path fill="rgb(176,150,179)" stroke="rgb(176,150,179)" stroke-width="1" opacity="1" d="M 817.5 268 L 815.5 271 L 817.5 268 Z " /><path fill="rgb(176,150,179)" stroke="rgb(176,150,179)" stroke-width="1" opacity="1" d="M 458.5 269 L 459 271 L 461 271.5 L 459.5 272 L 458.5 269 Z " /><path fill="rgb(176,150,179)" stroke="rgb(176,150,179)" stroke-width="1" opacity="1" d="M 468.5 269 L 469 274.5 L 468 274.5 L 468.5 269 Z " /><path fill="rgb(176,150,179)" stroke="rgb(176,150,179)" stroke-width="1" opacity="1" d="M 516.5 269 L 515.5 271 L 516.5 269 Z " /><path fill="rgb(176,150,179)" stroke="rgb(176,150,179)" stroke-width="1" opacity="1" d="M 369.5 270 L 373 272.5 L 372.5 276 L 370.5 271 L 369.5 270 Z " /><path fill="rgb(176,150,179)" stroke="rgb(176,150,179)" stroke-width="1" opacity="1" d="M 739.5 270 L 743 272.5 L 742.5 276 L 740.5 271 L 739.5 270 Z " /><path fill="rgb(176,150,179)" stroke="rgb(176,150,179)" stroke-width="1" opacity="1" d="M 777.5 270 L 776.5 272 L 777.5 270 Z " /><path fill="rgb(176,150,179)" stroke="rgb(176,150,179)" stroke-width="1" opacity="1" d="M 898.5 271 L 897.5 273 L 898.5 271 Z " /><path fill="rgb(176,150,179)" stroke="rgb(176,150,179)" stroke-width="1" opacity="1" d="M 360.5 272 L 359.5 274 L 360.5 272 Z " /><path fill="rgb(176,150,179)" stroke="rgb(176,150,179)" stroke-width="1" opacity="1" d="M 730.5 272 L 729.5 274 L 730.5 272 Z " /><path fill="rgb(176,150,179)" stroke="rgb(176,150,179)" stroke-width="1" opacity="1" d="M 854.5 272 L 853.5 274 L 854.5 272 Z " /><path fill="rgb(176,150,179)" stroke="rgb(176,150,179)" stroke-width="1" opacity="1" d="M 872.5 272 L 876 272.5 L 872.5 273 L 872.5 272 Z " /><path fill="rgb(176,150,179)" stroke="rgb(176,150,179)" stroke-width="1" opacity="1" d="M 348.5 273 L 346.5 276 L 348.5 273 Z " /><path fill="rgb(176,150,179)" stroke="rgb(176,150,179)" stroke-width="1" opacity="1" d="M 718.5 273 L 716.5 276 L 718.5 273 Z " /><path fill="rgb(176,150,179)" stroke="rgb(176,150,179)" stroke-width="1" opacity="1" d="M 883.5 273 L 888 273.5 L 883.5 274 L 883.5 273 Z " /><path fill="rgb(176,150,179)" stroke="rgb(176,150,179)" stroke-width="1" opacity="1" d="M 892.5 273 L 895 273.5 L 892.5 274 L 892.5 273 Z " /><path fill="rgb(176,150,179)" stroke="rgb(176,150,179)" stroke-width="1" opacity="1" d="M 191.5 275 L 190.5 277 L 191.5 275 Z " /><path fill="rgb(176,150,179)" stroke="rgb(176,150,179)" stroke-width="1" opacity="1" d="M 200.5 275 L 199.5 277 L 200.5 275 Z " /><path fill="rgb(176,150,179)" stroke="rgb(176,150,179)" stroke-width="1" opacity="1" d="M 850.5 275 L 846.5 280 L 850.5 275 Z " /><path fill="rgb(176,150,179)" stroke="rgb(176,150,179)" stroke-width="1" opacity="1" d="M 820.5 276 L 823 276.5 L 820.5 277 L 820.5 276 Z " /><path fill="rgb(176,150,179)" stroke="rgb(176,150,179)" stroke-width="1" opacity="1" d="M 836.5 276 L 835.5 278 L 836.5 276 Z " /><path fill="rgb(176,150,179)" stroke="rgb(176,150,179)" stroke-width="1" opacity="1" d="M 859.5 276 L 856.5 280 L 859.5 276 Z " /><path fill="rgb(176,150,179)" stroke="rgb(176,150,179)" stroke-width="1" opacity="1" d="M 189.5 278 L 188.5 280 L 189.5 278 Z " /><path fill="rgb(176,150,179)" stroke="rgb(176,150,179)" stroke-width="1" opacity="1" d="M 198.5 278 L 197.5 280 L 198.5 278 Z " /><path fill="rgb(176,150,179)" stroke="rgb(176,150,179)" stroke-width="1" opacity="1" d="M 782.5 278 L 783 281.5 L 782 281.5 L 782.5 278 Z " /><path fill="rgb(176,150,179)" stroke="rgb(176,150,179)" stroke-width="1" opacity="1" d="M 807.5 278 L 805.5 281 L 807.5 278 Z " /><path fill="rgb(176,150,179)" stroke="rgb(176,150,179)" stroke-width="1" opacity="1" d="M 353.5 279 L 352.5 281 L 353.5 279 Z " /><path fill="rgb(176,150,179)" stroke="rgb(176,150,179)" stroke-width="1" opacity="1" d="M 384.5 279 L 382.5 282 L 384.5 279 Z " /><path fill="rgb(176,150,179)" stroke="rgb(176,150,179)" stroke-width="1" opacity="1" d="M 723.5 279 L 722.5 281 L 723.5 279 Z " /><path fill="rgb(176,150,179)" stroke="rgb(176,150,179)" stroke-width="1" opacity="1" d="M 754.5 279 L 752.5 282 L 754.5 279 Z " /><path fill="rgb(176,150,179)" stroke="rgb(176,150,179)" stroke-width="1" opacity="1" d="M 813.5 280 L 806.5 288 L 813.5 280 Z " /><path fill="rgb(176,150,179)" stroke="rgb(176,150,179)" stroke-width="1" opacity="1" d="M 234.5 281 L 233.5 283 L 227 282.5 L 234.5 281 Z " /><path fill="rgb(176,150,179)" stroke="rgb(176,150,179)" stroke-width="1" opacity="1" d="M 216.5 283 L 221 283.5 L 216.5 284 L 216.5 283 Z " /><path fill="rgb(176,150,179)" stroke="rgb(176,150,179)" stroke-width="1" opacity="1" d="M 350.5 283 L 349.5 285 L 350.5 283 Z " /><path fill="rgb(176,150,179)" stroke="rgb(176,150,179)" stroke-width="1" opacity="1" d="M 583.5 283 L 584 285.5 L 583 285.5 L 583.5 283 Z " /><path fill="rgb(176,150,179)" stroke="rgb(176,150,179)" stroke-width="1" opacity="1" d="M 720.5 283 L 719.5 285 L 720.5 283 Z " /><path fill="rgb(176,150,179)" stroke="rgb(176,150,179)" stroke-width="1" opacity="1" d="M 207.5 284 L 211 284.5 L 207.5 285 L 207.5 284 Z " /><path fill="rgb(176,150,179)" stroke="rgb(176,150,179)" stroke-width="1" opacity="1" d="M 254.5 284 L 251.5 288 L 254.5 284 Z " /><path fill="rgb(176,150,179)" stroke="rgb(176,150,179)" stroke-width="1" opacity="1" d="M 337.5 284 L 335.5 287 L 337.5 284 Z " /><path fill="rgb(176,150,179)" stroke="rgb(176,150,179)" stroke-width="1" opacity="1" d="M 707.5 284 L 705.5 287 L 707.5 284 Z " /><path fill="rgb(176,150,179)" stroke="rgb(176,150,179)" stroke-width="1" opacity="1" d="M 802.5 284 L 801.5 286 L 802.5 284 Z " /><path fill="rgb(176,150,179)" stroke="rgb(176,150,179)" stroke-width="1" opacity="1" d="M 199.5 285 L 203 285.5 L 199.5 286 L 199.5 285 Z " /><path fill="rgb(176,150,179)" stroke="rgb(176,150,179)" stroke-width="1" opacity="1" d="M 379.5 285 L 376.5 289 L 379.5 285 Z " /><path fill="rgb(176,150,179)" stroke="rgb(176,150,179)" stroke-width="1" opacity="1" d="M 749.5 285 L 746.5 289 L 749.5 285 Z " /><path fill="rgb(176,150,179)" stroke="rgb(176,150,179)" stroke-width="1" opacity="1" d="M 854.5 285 L 855 287.5 L 854 287.5 L 854.5 285 Z " /><path fill="rgb(176,150,179)" stroke="rgb(176,150,179)" stroke-width="1" opacity="1" d="M 366.5 288 L 364.5 291 L 366.5 288 Z " /><path fill="rgb(176,150,179)" stroke="rgb(176,150,179)" stroke-width="1" opacity="1" d="M 736.5 288 L 734.5 291 L 736.5 288 Z " /><path fill="rgb(176,150,179)" stroke="rgb(176,150,179)" stroke-width="1" opacity="1" d="M 220.5 289 L 228 289.5 L 220.5 290 L 220.5 289 Z " /><path fill="rgb(176,150,179)" stroke="rgb(176,150,179)" stroke-width="1" opacity="1" d="M 333.5 289 L 332.5 291 L 333.5 289 Z " /><path fill="rgb(176,150,179)" stroke="rgb(176,150,179)" stroke-width="1" opacity="1" d="M 641.5 289 L 642 291.5 L 641 291.5 L 641.5 289 Z " /><path fill="rgb(176,150,179)" stroke="rgb(176,150,179)" stroke-width="1" opacity="1" d="M 703.5 289 L 702.5 291 L 703.5 289 Z " /><path fill="rgb(176,150,179)" stroke="rgb(176,150,179)" stroke-width="1" opacity="1" d="M 210.5 290 L 214 290.5 L 210.5 291 L 210.5 290 Z " /><path fill="rgb(176,150,179)" stroke="rgb(176,150,179)" stroke-width="1" opacity="1" d="M 523.5 290 L 522.5 292 L 523.5 290 Z " /><path fill="rgb(176,150,179)" stroke="rgb(176,150,179)" stroke-width="1" opacity="1" d="M 804.5 290 L 802.5 293 L 804.5 290 Z " /><path fill="rgb(176,150,179)" stroke="rgb(176,150,179)" stroke-width="1" opacity="1" d="M 203.5 291 L 206 291.5 L 203.5 292 L 203.5 291 Z " /><path fill="rgb(176,150,179)" stroke="rgb(176,150,179)" stroke-width="1" opacity="1" d="M 797.5 291 L 796.5 293 L 797.5 291 Z " /><path fill="rgb(176,150,179)" stroke="rgb(176,150,179)" stroke-width="1" opacity="1" d="M 371.5 292 L 369.5 295 L 371.5 292 Z " /><path fill="rgb(176,150,179)" stroke="rgb(176,150,179)" stroke-width="1" opacity="1" d="M 741.5 292 L 739.5 295 L 741.5 292 Z " /><path fill="rgb(176,150,179)" stroke="rgb(176,150,179)" stroke-width="1" opacity="1" d="M 794.5 292 L 796 294.5 L 793.5 296 L 793.5 295 L 795 294.5 L 794.5 292 Z " /><path fill="rgb(176,150,179)" stroke="rgb(176,150,179)" stroke-width="1" opacity="1" d="M 192.5 293 L 195 293.5 L 192.5 294 L 192.5 293 Z " /><path fill="rgb(176,150,179)" stroke="rgb(176,150,179)" stroke-width="1" opacity="1" d="M 231.5 293 L 232 295.5 L 231 295.5 L 231.5 293 Z " /><path fill="rgb(176,150,179)" stroke="rgb(176,150,179)" stroke-width="1" opacity="1" d="M 360.5 293 L 359.5 295 L 360.5 293 Z " /><path fill="rgb(176,150,179)" stroke="rgb(176,150,179)" stroke-width="1" opacity="1" d="M 730.5 293 L 729.5 295 L 730.5 293 Z " /><path fill="rgb(176,150,179)" stroke="rgb(176,150,179)" stroke-width="1" opacity="1" d="M 189.5 294 L 188.5 296 L 189.5 294 Z " /><path fill="rgb(176,150,179)" stroke="rgb(176,150,179)" stroke-width="1" opacity="1" d="M 357.5 295 L 356.5 297 L 357.5 295 Z " /><path fill="rgb(176,150,179)" stroke="rgb(176,150,179)" stroke-width="1" opacity="1" d="M 727.5 295 L 726.5 297 L 727.5 295 Z " /><path fill="rgb(176,150,179)" stroke="rgb(176,150,179)" stroke-width="1" opacity="1" d="M 841.5 295 L 842 298.5 L 841 298.5 L 841.5 295 Z " /><path fill="rgb(176,150,179)" stroke="rgb(176,150,179)" stroke-width="1" opacity="1" d="M 366.5 296 L 365.5 298 L 366.5 296 Z " /><path fill="rgb(176,150,179)" stroke="rgb(176,150,179)" stroke-width="1" opacity="1" d="M 736.5 296 L 735.5 298 L 736.5 296 Z " /><path fill="rgb(176,150,179)" stroke="rgb(176,150,179)" stroke-width="1" opacity="1" d="M 175.5 297 L 176.5 299 L 175.5 297 Z " /><path fill="rgb(176,150,179)" stroke="rgb(176,150,179)" stroke-width="1" opacity="1" d="M 354.5 297 L 353.5 299 L 354.5 297 Z " /><path fill="rgb(176,150,179)" stroke="rgb(176,150,179)" stroke-width="1" opacity="1" d="M 505.5 297 L 504.5 299 L 505.5 297 Z " /><path fill="rgb(176,150,179)" stroke="rgb(176,150,179)" stroke-width="1" opacity="1" d="M 724.5 297 L 723.5 299 L 724.5 297 Z " /><path fill="rgb(176,150,179)" stroke="rgb(176,150,179)" stroke-width="1" opacity="1" d="M 362.5 299 L 361.5 301 L 362.5 299 Z " /><path fill="rgb(176,150,179)" stroke="rgb(176,150,179)" stroke-width="1" opacity="1" d="M 732.5 299 L 731.5 301 L 732.5 299 Z " /><path fill="rgb(176,150,179)" stroke="rgb(176,150,179)" stroke-width="1" opacity="1" d="M 503.5 300 L 502.5 302 L 503.5 300 Z " /><path fill="rgb(176,150,179)" stroke="rgb(176,150,179)" stroke-width="1" opacity="1" d="M 359.5 301 L 358.5 303 L 359.5 301 Z " /><path fill="rgb(176,150,179)" stroke="rgb(176,150,179)" stroke-width="1" opacity="1" d="M 729.5 301 L 728.5 303 L 729.5 301 Z " /><path fill="rgb(176,150,179)" stroke="rgb(176,150,179)" stroke-width="1" opacity="1" d="M 341.5 302 L 344 302.5 L 341.5 303 L 341.5 302 Z " /><path fill="rgb(176,150,179)" stroke="rgb(176,150,179)" stroke-width="1" opacity="1" d="M 711.5 302 L 714 302.5 L 711.5 303 L 711.5 302 Z " /><path fill="rgb(176,150,179)" stroke="rgb(176,150,179)" stroke-width="1" opacity="1" d="M 500.5 304 L 499.5 306 L 500.5 304 Z " /><path fill="rgb(176,150,179)" stroke="rgb(176,150,179)" stroke-width="1" opacity="1" d="M 846.5 304 L 847.5 306 L 846.5 304 Z " /><path fill="rgb(176,150,179)" stroke="rgb(176,150,179)" stroke-width="1" opacity="1" d="M 877.5 305 L 878.5 307 L 877.5 305 Z " /><path fill="rgb(176,150,179)" stroke="rgb(176,150,179)" stroke-width="1" opacity="1" d="M 880.5 307 L 882.5 310 L 880.5 307 Z " /><path fill="rgb(176,150,179)" stroke="rgb(176,150,179)" stroke-width="1" opacity="1" d="M 497.5 308 L 496.5 310 L 497.5 308 Z " /><path fill="rgb(176,150,179)" stroke="rgb(176,150,179)" stroke-width="1" opacity="1" d="M 855.5 310 L 856.5 312 L 855.5 310 Z " /><path fill="rgb(176,150,179)" stroke="rgb(176,150,179)" stroke-width="1" opacity="1" d="M 341.5 311 L 340.5 313 L 341.5 311 Z " /><path fill="rgb(176,150,179)" stroke="rgb(176,150,179)" stroke-width="1" opacity="1" d="M 711.5 311 L 710.5 313 L 711.5 311 Z " /><path fill="rgb(176,150,179)" stroke="rgb(176,150,179)" stroke-width="1" opacity="1" d="M 494.5 312 L 492.5 315 L 494.5 312 Z " /><path fill="rgb(176,150,179)" stroke="rgb(176,150,179)" stroke-width="1" opacity="1" d="M 885.5 312 L 886.5 314 L 885.5 312 Z " /><path fill="rgb(176,150,179)" stroke="rgb(176,150,179)" stroke-width="1" opacity="1" d="M 500.5 314 L 497.5 318 L 500.5 314 Z " /><path fill="rgb(176,150,179)" stroke="rgb(176,150,179)" stroke-width="1" opacity="1" d="M 589.5 314 L 590 316.5 L 589 316.5 L 589.5 314 Z " /><path fill="rgb(176,150,179)" stroke="rgb(176,150,179)" stroke-width="1" opacity="1" d="M 339.5 315 L 340 317.5 L 339 317.5 L 339.5 315 Z " /><path fill="rgb(176,150,179)" stroke="rgb(176,150,179)" stroke-width="1" opacity="1" d="M 709.5 315 L 710 317.5 L 709 317.5 L 709.5 315 Z " /><path fill="rgb(176,150,179)" stroke="rgb(176,150,179)" stroke-width="1" opacity="1" d="M 322.5 316 L 323 318.5 L 322 318.5 L 322.5 316 Z " /><path fill="rgb(176,150,179)" stroke="rgb(176,150,179)" stroke-width="1" opacity="1" d="M 692.5 316 L 693 318.5 L 692 318.5 L 692.5 316 Z " /><path fill="rgb(176,150,179)" stroke="rgb(176,150,179)" stroke-width="1" opacity="1" d="M 240.5 318 L 241 320.5 L 240 320.5 L 240.5 318 Z " /><path fill="rgb(176,150,179)" stroke="rgb(176,150,179)" stroke-width="1" opacity="1" d="M 488.5 319 L 477.5 331 L 488.5 319 Z " /><path fill="rgb(176,150,179)" stroke="rgb(176,150,179)" stroke-width="1" opacity="1" d="M 870.5 319 L 872.5 322 L 870.5 319 Z " /><path fill="rgb(176,150,179)" stroke="rgb(176,150,179)" stroke-width="1" opacity="1" d="M 635.5 320 L 636 322.5 L 635 322.5 L 635.5 320 Z " /><path fill="rgb(176,150,179)" stroke="rgb(176,150,179)" stroke-width="1" opacity="1" d="M 339.5 321 L 340 326.5 L 339 326.5 L 339.5 321 Z " /><path fill="rgb(176,150,179)" stroke="rgb(176,150,179)" stroke-width="1" opacity="1" d="M 709.5 321 L 710 326.5 L 709 326.5 L 709.5 321 Z " /><path fill="rgb(176,150,179)" stroke="rgb(176,150,179)" stroke-width="1" opacity="1" d="M 493.5 322 L 488.5 328 L 493.5 322 Z " /><path fill="rgb(176,150,179)" stroke="rgb(176,150,179)" stroke-width="1" opacity="1" d="M 888.5 323 L 889 325.5 L 888 325.5 L 888.5 323 Z " /><path fill="rgb(176,150,179)" stroke="rgb(176,150,179)" stroke-width="1" opacity="1" d="M 239.5 325 L 240 328.5 L 239 328.5 L 239.5 325 Z " /><path fill="rgb(176,150,179)" stroke="rgb(176,150,179)" stroke-width="1" opacity="1" d="M 296.5 328 L 297 330.5 L 296 330.5 L 296.5 328 Z " /><path fill="rgb(176,150,179)" stroke="rgb(176,150,179)" stroke-width="1" opacity="1" d="M 465.5 332 L 466 335.5 L 465 335.5 L 465.5 332 Z " /><path fill="rgb(176,150,179)" stroke="rgb(176,150,179)" stroke-width="1" opacity="1" d="M 473.5 333 L 471.5 336 L 473.5 333 Z " /><path fill="rgb(176,150,179)" stroke="rgb(176,150,179)" stroke-width="1" opacity="1" d="M 238.5 334 L 239 339.5 L 238 339.5 L 238.5 334 Z " /><path fill="rgb(176,150,179)" stroke="rgb(176,150,179)" stroke-width="1" opacity="1" d="M 295.5 335 L 296 338.5 L 295 338.5 L 295.5 335 Z " /><path fill="rgb(176,150,179)" stroke="rgb(176,150,179)" stroke-width="1" opacity="1" d="M 827.5 335 L 826.5 337 L 827.5 335 Z " /><path fill="rgb(176,150,179)" stroke="rgb(176,150,179)" stroke-width="1" opacity="1" d="M 173.5 336 L 174 338.5 L 173 338.5 L 173.5 336 Z " /><path fill="rgb(176,150,179)" stroke="rgb(176,150,179)" stroke-width="1" opacity="1" d="M 837.5 337 L 838.5 339 L 837.5 337 Z " /><path fill="rgb(176,150,179)" stroke="rgb(176,150,179)" stroke-width="1" opacity="1" d="M 882.5 337 L 881.5 339 L 882.5 337 Z " /><path fill="rgb(176,150,179)" stroke="rgb(176,150,179)" stroke-width="1" opacity="1" d="M 343.5 338 L 347.5 343 L 343.5 338 Z " /><path fill="rgb(176,150,179)" stroke="rgb(176,150,179)" stroke-width="1" opacity="1" d="M 713.5 338 L 717.5 343 L 713.5 338 Z " /><path fill="rgb(176,150,179)" stroke="rgb(176,150,179)" stroke-width="1" opacity="1" d="M 417.5 340 L 418 343.5 L 417 343.5 L 417.5 340 Z " /><path fill="rgb(176,150,179)" stroke="rgb(176,150,179)" stroke-width="1" opacity="1" d="M 594.5 340 L 595 342.5 L 594 342.5 L 594.5 340 Z " /><path fill="rgb(176,150,179)" stroke="rgb(176,150,179)" stroke-width="1" opacity="1" d="M 377.5 341 L 378 343.5 L 377 343.5 L 377.5 341 Z " /><path fill="rgb(176,150,179)" stroke="rgb(176,150,179)" stroke-width="1" opacity="1" d="M 747.5 341 L 748 343.5 L 747 343.5 L 747.5 341 Z " /><path fill="rgb(176,150,179)" stroke="rgb(176,150,179)" stroke-width="1" opacity="1" d="M 868.5 341 L 867.5 343 L 868.5 341 Z " /><path fill="rgb(176,150,179)" stroke="rgb(176,150,179)" stroke-width="1" opacity="1" d="M 237.5 342 L 236.5 344 L 237.5 342 Z " /><path fill="rgb(176,150,179)" stroke="rgb(176,150,179)" stroke-width="1" opacity="1" d="M 446.5 343 L 447 345.5 L 446 345.5 L 446.5 343 Z " /><path fill="rgb(176,150,179)" stroke="rgb(176,150,179)" stroke-width="1" opacity="1" d="M 220.5 344 L 221 346.5 L 220 346.5 L 220.5 344 Z " /><path fill="rgb(176,150,179)" stroke="rgb(176,150,179)" stroke-width="1" opacity="1" d="M 352.5 344 L 355 344.5 L 352.5 345 L 352.5 344 Z " /><path fill="rgb(176,150,179)" stroke="rgb(176,150,179)" stroke-width="1" opacity="1" d="M 362.5 344 L 365 344.5 L 362.5 345 L 362.5 344 Z " /><path fill="rgb(176,150,179)" stroke="rgb(176,150,179)" stroke-width="1" opacity="1" d="M 722.5 344 L 725 344.5 L 722.5 345 L 722.5 344 Z " /><path fill="rgb(176,150,179)" stroke="rgb(176,150,179)" stroke-width="1" opacity="1" d="M 732.5 344 L 735 344.5 L 732.5 345 L 732.5 344 Z " /><path fill="rgb(176,150,179)" stroke="rgb(176,150,179)" stroke-width="1" opacity="1" d="M 172.5 345 L 173 346.5 L 171 347.5 L 172.5 345 Z " /><path fill="rgb(176,150,179)" stroke="rgb(176,150,179)" stroke-width="1" opacity="1" d="M 375.5 345 L 374.5 347 L 375.5 345 Z " /><path fill="rgb(176,150,179)" stroke="rgb(176,150,179)" stroke-width="1" opacity="1" d="M 595.5 345 L 596 347.5 L 595 347.5 L 595.5 345 Z " /><path fill="rgb(176,150,179)" stroke="rgb(176,150,179)" stroke-width="1" opacity="1" d="M 745.5 345 L 744.5 347 L 745.5 345 Z " /><path fill="rgb(176,150,179)" stroke="rgb(176,150,179)" stroke-width="1" opacity="1" d="M 874.5 345 L 873.5 347 L 874.5 345 Z " /><path fill="rgb(176,150,179)" stroke="rgb(176,150,179)" stroke-width="1" opacity="1" d="M 234.5 346 L 232.5 349 L 234.5 346 Z " /><path fill="rgb(176,150,179)" stroke="rgb(176,150,179)" stroke-width="1" opacity="1" d="M 328.5 346 L 330.5 349 L 328.5 346 Z " /><path fill="rgb(176,150,179)" stroke="rgb(176,150,179)" stroke-width="1" opacity="1" d="M 630.5 346 L 631 348.5 L 630 348.5 L 630.5 346 Z " /><path fill="rgb(176,150,179)" stroke="rgb(176,150,179)" stroke-width="1" opacity="1" d="M 698.5 346 L 700.5 349 L 698.5 346 Z " /><path fill="rgb(176,150,179)" stroke="rgb(176,150,179)" stroke-width="1" opacity="1" d="M 777.5 346 L 776.5 348 L 777.5 346 Z " /><path fill="rgb(176,150,179)" stroke="rgb(176,150,179)" stroke-width="1" opacity="1" d="M 823.5 346 L 826.5 350 L 823.5 346 Z " /><path fill="rgb(176,150,179)" stroke="rgb(176,150,179)" stroke-width="1" opacity="1" d="M 468.5 347 L 466.5 350 L 468.5 347 Z " /><path fill="rgb(176,150,179)" stroke="rgb(176,150,179)" stroke-width="1" opacity="1" d="M 871.5 347 L 870.5 349 L 871.5 347 Z " /><path fill="rgb(176,150,179)" stroke="rgb(176,150,179)" stroke-width="1" opacity="1" d="M 291.5 348 L 290.5 350 L 291.5 348 Z " /><path fill="rgb(176,150,179)" stroke="rgb(176,150,179)" stroke-width="1" opacity="1" d="M 775.5 349 L 772.5 353 L 775.5 349 Z " /><path fill="rgb(176,150,179)" stroke="rgb(176,150,179)" stroke-width="1" opacity="1" d="M 275.5 350 L 276 353.5 L 275 353.5 L 275.5 350 Z " /><path fill="rgb(176,150,179)" stroke="rgb(176,150,179)" stroke-width="1" opacity="1" d="M 288.5 350 L 287.5 352 L 288.5 350 Z " /><path fill="rgb(176,150,179)" stroke="rgb(176,150,179)" stroke-width="1" opacity="1" d="M 464.5 350 L 463.5 352 L 464.5 350 Z " /><path fill="rgb(176,150,179)" stroke="rgb(176,150,179)" stroke-width="1" opacity="1" d="M 167.5 351 L 166.5 353 L 167.5 351 Z " /><path fill="rgb(176,150,179)" stroke="rgb(176,150,179)" stroke-width="1" opacity="1" d="M 629.5 351 L 630 353.5 L 629 353.5 L 629.5 351 Z " /><path fill="rgb(176,150,179)" stroke="rgb(176,150,179)" stroke-width="1" opacity="1" d="M 222.5 352 L 226 352.5 L 222.5 353 L 222.5 352 Z " /><path fill="rgb(176,150,179)" stroke="rgb(176,150,179)" stroke-width="1" opacity="1" d="M 341.5 353 L 344 353.5 L 341.5 354 L 341.5 353 Z " /><path fill="rgb(176,150,179)" stroke="rgb(176,150,179)" stroke-width="1" opacity="1" d="M 353.5 353 L 356 353.5 L 353.5 354 L 353.5 353 Z " /><path fill="rgb(176,150,179)" stroke="rgb(176,150,179)" stroke-width="1" opacity="1" d="M 447.5 353 L 448.5 355 L 447.5 353 Z " /><path fill="rgb(176,150,179)" stroke="rgb(176,150,179)" stroke-width="1" opacity="1" d="M 711.5 353 L 714 353.5 L 711.5 354 L 711.5 353 Z " /><path fill="rgb(176,150,179)" stroke="rgb(176,150,179)" stroke-width="1" opacity="1" d="M 723.5 353 L 726 353.5 L 723.5 354 L 723.5 353 Z " /><path fill="rgb(176,150,179)" stroke="rgb(176,150,179)" stroke-width="1" opacity="1" d="M 837.5 354 L 840 354.5 L 837.5 355 L 837.5 354 Z " /><path fill="rgb(176,150,179)" stroke="rgb(176,150,179)" stroke-width="1" opacity="1" d="M 851.5 354 L 854 354.5 L 851.5 355 L 851.5 354 Z " /><path fill="rgb(176,150,179)" stroke="rgb(176,150,179)" stroke-width="1" opacity="1" d="M 450.5 355 L 453 355.5 L 450.5 356 L 450.5 355 Z " /><path fill="rgb(176,150,179)" stroke="rgb(176,150,179)" stroke-width="1" opacity="1" d="M 597.5 356 L 598 358 L 627.5 358 L 628.5 357 L 627.5 359 L 598.5 359 L 597 357.5 L 597.5 356 Z " /><path fill="rgb(176,150,179)" stroke="rgb(176,150,179)" stroke-width="1" opacity="1" d="M 484.5 395 L 483.5 397 L 484.5 395 Z " /><path fill="rgb(176,150,179)" stroke="rgb(176,150,179)" stroke-width="1" opacity="1" d="M 482.5 398 L 481.5 400 L 482.5 398 Z " /><path fill="rgb(176,150,179)" stroke="rgb(176,150,179)" stroke-width="1" opacity="1" d="M 480.5 401 L 479.5 403 L 480.5 401 Z " /><path fill="rgb(176,150,179)" stroke="rgb(176,150,179)" stroke-width="1" opacity="1" d="M 465.5 403 L 464.5 405 L 465.5 403 Z " /><path fill="rgb(176,150,179)" stroke="rgb(176,150,179)" stroke-width="1" opacity="1" d="M 477.5 405 L 476.5 407 L 477.5 405 Z " /><path fill="rgb(176,150,179)" stroke="rgb(176,150,179)" stroke-width="1" opacity="1" d="M 462.5 407 L 454.5 416 L 462.5 407 Z " /><path fill="rgb(176,150,179)" stroke="rgb(176,150,179)" stroke-width="1" opacity="1" d="M 473.5 410 L 468.5 416 L 473.5 410 Z " /><path fill="rgb(176,150,179)" stroke="rgb(176,150,179)" stroke-width="1" opacity="1" d="M 451.5 417 L 450.5 419 L 451.5 417 Z " /><path fill="rgb(176,150,179)" stroke="rgb(176,150,179)" stroke-width="1" opacity="1" d="M 463.5 419 L 462.5 421 L 463.5 419 Z " /><path fill="rgb(176,150,179)" stroke="rgb(176,150,179)" stroke-width="1" opacity="1" d="M 457.5 423 L 456.5 425 L 457.5 423 Z " /><path fill="rgb(176,150,179)" stroke="rgb(176,150,179)" stroke-width="1" opacity="1" d="M 413.5 426 L 416 426.5 L 413.5 427 L 413.5 426 Z " /><path fill="rgb(176,150,179)" stroke="rgb(176,150,179)" stroke-width="1" opacity="1" d="M 427.5 426 L 431 426.5 L 427.5 427 L 427.5 426 Z " /><path fill="rgb(176,150,179)" stroke="rgb(176,150,179)" stroke-width="1" opacity="1" d="M 621.5 517 L 641.5 518 L 666.5 523 L 679.5 527 L 701.5 540 L 728.5 547 L 733.5 547 L 739.5 549 L 744.5 549 L 755.5 552 L 761.5 552 L 781.5 556 L 810.5 558 L 821.5 560 L 860.5 561 L 861.5 562 L 862.5 561 L 879.5 561 L 880.5 560 L 892.5 560 L 900.5 558 L 908.5 558 L 945.5 551 L 968.5 540 L 1015.5 524 L 1034.5 519 L 1050 517 L 1050 599.5 L 1049.5 600 L 0 600 L 0.5 523 L 3.5 526 L 14.5 531 L 40.5 537 L 57.5 538 L 58.5 539 L 72.5 539 L 73.5 540 L 93.5 540 L 94.5 541 L 141.5 541 L 142.5 540 L 156.5 540 L 172.5 537 L 179.5 537 L 180.5 536 L 210.5 532 L 211.5 531 L 217.5 531 L 218.5 530 L 225.5 530 L 226.5 529 L 239.5 529 L 240.5 528 L 287.5 528 L 288.5 529 L 301.5 529 L 302.5 530 L 315.5 531 L 341.5 541 L 368.5 546 L 386.5 547 L 387.5 548 L 400.5 548 L 401.5 549 L 416.5 549 L 417.5 550 L 437.5 550 L 438.5 551 L 500.5 552 L 501.5 551 L 530.5 550 L 531.5 549 L 548.5 547 L 580.5 539 L 597.5 532 L 609.5 521 L 615.5 518 Q 620.3 519.3 621.5 517 Z " /><path fill="rgb(218,180,93)" stroke="rgb(218,180,93)" stroke-width="1" opacity="1" d="M 663.5 105 L 662.5 107 L 663.5 105 Z " /><path fill="rgb(218,180,93)" stroke="rgb(218,180,93)" stroke-width="1" opacity="1" d="M 642.5 139 L 643.5 141 L 642.5 139 Z " /><path fill="rgb(218,180,93)" stroke="rgb(218,180,93)" stroke-width="1" opacity="1" d="M 617.5 161 L 624 172.5 L 624 177.5 L 623 180 Q 620.6 181.8 614.5 181 L 612 180 Q 610.4 177.9 611 172.5 L 617.5 161 Z M 623 175 L 622 177 L 619 179 L 619 180 Q 623 180 623 178 L 623 175 Z " /><path fill="rgb(218,180,93)" stroke="rgb(218,180,93)" stroke-width="1" opacity="1" d="M 593.5 177 L 607 201.5 L 607 210.5 L 604 216 L 598.5 219 Q 593.8 217.8 592.5 220 Q 585.1 218.9 582 213.5 Q 579.1 209.9 580 202.5 L 589 188.5 L 593.5 177 Z M 605 205 L 602 211 Q 599 215 594 216 L 594 217 L 601 216 L 605 211 L 605 205 Z " /><path fill="rgb(218,180,93)" stroke="rgb(218,180,93)" stroke-width="1" opacity="1" d="M 632 212 Q 635 210.8 634 214.5 L 642 226.5 L 642 233.5 L 641 236 L 634.5 239 L 630.5 239 L 625 236 Q 623.1 233.3 624 226.5 L 631 216.5 L 632 212 Z M 641 229 L 639 233 L 634 236 L 634 237 L 639 236 L 641 233 L 641 229 Z " /><path fill="rgb(218,180,93)" stroke="rgb(218,180,93)" stroke-width="1" opacity="1" d="M 883.5 310 L 884.5 312 L 883.5 310 Z " /><path fill="rgb(218,180,93)" stroke="rgb(218,180,93)" stroke-width="1" opacity="1" d="M 410.5 426 L 413 426.5 L 410.5 427 L 410.5 426 Z " /><path fill="rgb(218,180,93)" stroke="rgb(218,180,93)" stroke-width="1" opacity="1" d="M 611.5 481 L 652.5 481 L 653.5 482 L 662.5 482 L 663.5 483 L 675.5 484 L 713.5 493 L 736.5 502 L 745.5 507 L 770.5 515 L 793.5 519 L 799.5 519 L 800.5 520 L 809.5 520 L 810.5 521 L 863.5 524 L 864.5 523 L 888.5 522 L 908.5 518 L 932.5 506 L 968.5 495 L 1001.5 487 Q 1011 487 1017.5 484 L 1024.5 484 L 1025.5 483 L 1045.5 483 L 1050 484 L 1050 516.5 Q 1049.9 517.6 1044.5 517 Q 990 529 945.5 551 L 908.5 558 L 900.5 558 L 892.5 560 L 880.5 560 L 879.5 561 L 862.5 561 L 861.5 562 L 860.5 561 L 821.5 560 L 820.5 559 L 781.5 556 L 761.5 552 L 755.5 552 L 733.5 547 L 728.5 547 L 701.5 540 L 679.5 527 L 666.5 523 L 641.5 518 L 621.5 517 Q 620.3 519.3 615.5 518 L 609.5 521 L 597.5 532 L 591.5 535 L 580.5 539 L 548.5 547 L 543.5 547 L 530.5 550 L 521.5 550 L 520.5 551 L 475.5 552 L 474.5 551 L 417.5 550 L 416.5 549 L 401.5 549 L 400.5 548 L 387.5 548 L 386.5 547 L 368.5 546 L 341.5 541 L 319.5 532 L 310.5 530 L 302.5 530 L 301.5 529 L 288.5 529 L 287.5 528 L 240.5 528 L 239.5 529 L 218.5 530 L 217.5 531 L 204.5 532 L 203.5 533 L 198.5 533 L 179.5 537 L 165.5 538 L 164.5 539 L 157.5 539 L 156.5 540 L 142.5 540 L 141.5 541 L 94.5 541 L 93.5 540 L 58.5 539 L 57.5 538 L 48.5 538 L 47.5 537 L 34.5 536 L 14.5 531 L 3.5 526 L 0 522.5 L 0 484.5 L 2.5 484 L 32.5 493 L 46.5 499 L 60.5 502 L 78.5 503 L 79.5 504 L 91.5 504 L 92.5 505 L 118.5 505 Q 120.3 507.8 126.5 506 L 127.5 505 L 144.5 505 L 145.5 504 L 158.5 503 L 204.5 492 L 232.5 491 L 233.5 492 L 296.5 492 L 297.5 493 L 310.5 493 L 311.5 494 L 330.5 495 L 351.5 499 L 372.5 508 L 382.5 510 L 390.5 510 L 391.5 511 L 401.5 511 L 402.5 512 L 444.5 513 L 445.5 514 L 493.5 514 L 494.5 513 L 510.5 513 L 537.5 507 L 545.5 504 L 557.5 494 L 566.5 489 L 582.5 485 L 600.5 483 L 601.5 482 L 610.5 482 L 611.5 481 Z " /></svg>